<svg width="362" height="349" viewBox="0 0 362 349" fill="none" xmlns="http://www.w3.org/2000/svg">
<rect y="0.607422" width="361.269" height="348.274" rx="8" transform="rotate(-0.0961842 0 0.607422)" fill="white"/>
<path d="M20.1299 73.3622L22.8858 65.846L23.8408 65.8444L26.6113 73.3513L25.6562 73.3529L24.9662 71.4225L21.7684 71.4279L21.0742 73.3606L20.1299 73.3622ZM22.0355 70.6977L24.6967 70.6933L23.3599 66.9827L22.0355 70.6977ZM27.7855 75.7101L27.7726 68.0269L28.5882 68.0255L28.6755 68.9053C28.8468 68.6475 29.0896 68.4145 29.404 68.2066C29.7256 67.9986 30.1332 67.8941 30.6268 67.8933C31.1562 67.8924 31.6178 68.0133 32.0117 68.2558C32.4055 68.4984 32.7101 68.8305 32.9255 69.2523C33.1479 69.674 33.2596 70.1531 33.2605 70.6896C33.2614 71.2262 33.1514 71.7057 32.9303 72.1281C32.7164 72.5434 32.4093 72.873 32.0091 73.1169C31.616 73.3536 31.1548 73.4724 30.6254 73.4733C30.1891 73.474 29.799 73.3853 29.4553 73.207C29.1188 73.0287 28.8608 72.7788 28.6815 72.4572L28.6869 75.7086L27.7855 75.7101ZM30.5275 72.6901C30.8852 72.6895 31.1999 72.6067 31.4714 72.4417C31.743 72.2696 31.9572 72.0332 32.1141 71.7324C32.271 71.4317 32.3491 71.081 32.3484 70.6804C32.3477 70.2798 32.2685 69.9294 32.1106 69.6292C31.9527 69.329 31.7377 69.0969 31.4655 68.9328C31.1934 68.7616 30.8785 68.6762 30.5208 68.6768C30.1631 68.6774 29.8485 68.7638 29.5769 68.936C29.3054 69.101 29.0911 69.3338 28.9343 69.6345C28.7774 69.9353 28.6993 70.2859 28.7 70.6865C28.7006 71.0872 28.7799 71.4376 28.9378 71.7378C29.0957 72.038 29.3107 72.2737 29.5828 72.4449C29.8549 72.609 30.1699 72.6907 30.5275 72.6901ZM34.627 73.3378L34.6181 68.0154L35.4336 68.014L35.5105 69.0333C35.6744 68.6825 35.9243 68.4031 36.2602 68.195C36.5961 67.987 37.0108 67.8826 37.5045 67.8818L37.506 68.8261L37.2592 68.8265C36.9445 68.827 36.6548 68.8847 36.3903 68.9996C36.1258 69.1074 35.9151 69.2937 35.7582 69.5587C35.6012 69.8237 35.5231 70.1886 35.5239 70.6536L35.5284 73.3363L34.627 73.3378ZM39.169 66.8274C38.9901 66.8277 38.8398 66.7707 38.718 66.6564C38.6033 66.535 38.5458 66.3849 38.5455 66.206C38.5453 66.0343 38.6022 65.8912 38.7165 65.7765C38.8379 65.6618 38.9881 65.6044 39.1669 65.6041C39.3386 65.6038 39.4854 65.6608 39.6072 65.775C39.729 65.8893 39.79 66.0322 39.7903 66.2039C39.7906 66.3828 39.7301 66.5331 39.6086 66.6549C39.4872 66.7696 39.3407 66.8271 39.169 66.8274ZM38.7292 73.3309L38.7203 68.0085L39.6216 68.007L39.6306 73.3294L38.7292 73.3309ZM41.3073 73.3266L41.2944 65.6005L42.1957 65.599L42.2087 73.3251L41.3073 73.3266ZM46.6762 73.3176L46.6752 72.6845C47.1824 72.283 47.661 71.878 48.111 71.4695C48.5682 71.0538 48.9717 70.6454 49.3216 70.2442C49.6786 69.8429 49.9569 69.449 50.1566 69.0624C50.3634 68.6757 50.4665 68.3035 50.4659 67.9459C50.4655 67.6812 50.4185 67.4344 50.3252 67.2057C50.2389 66.9769 50.0955 66.7947 49.895 66.6591C49.6945 66.5164 49.4225 66.4453 49.0791 66.4459C48.75 66.4464 48.4747 66.522 48.2532 66.6726C48.0317 66.8161 47.8639 67.0095 47.7499 67.2529C47.643 67.4963 47.5897 67.7575 47.5902 68.0365L46.721 68.038C46.7202 67.5444 46.8232 67.1221 47.0301 66.7712C47.2369 66.4132 47.5191 66.1409 47.8764 65.9543C48.2338 65.7677 48.6379 65.674 49.0885 65.6732C49.7539 65.6721 50.2979 65.8608 50.7206 66.2392C51.1504 66.6105 51.366 67.1682 51.3672 67.9122C51.368 68.3557 51.2578 68.7958 51.0368 69.2326C50.8157 69.6622 50.5339 70.0812 50.1912 70.4895C49.8485 70.8907 49.4807 71.2669 49.0878 71.6181C48.7021 71.9693 48.3413 72.2847 48.0056 72.5642L51.6326 72.5581L51.6338 73.3093L46.6762 73.3176ZM55.8673 73.4309C55.202 73.4321 54.6259 73.2721 54.1389 72.951C53.659 72.6227 53.2898 72.169 53.0313 71.59C52.7728 71.0038 52.6429 70.3244 52.6416 69.5518C52.6403 68.7792 52.7679 68.103 53.0245 67.5231C53.281 66.936 53.6487 66.4811 54.1275 66.1584C54.6134 65.8285 55.189 65.663 55.8543 65.6619C56.5196 65.6608 57.0922 65.8243 57.572 66.1526C58.0519 66.4737 58.4211 66.9274 58.6796 67.5136C58.9381 68.0926 59.068 68.7684 59.0693 69.541C59.0706 70.3136 58.943 70.9935 58.6864 71.5805C58.4298 72.1604 58.0622 72.6153 57.5834 72.9452C57.1047 73.2679 56.5326 73.4298 55.8673 73.4309ZM55.866 72.6369C56.3024 72.6361 56.692 72.5139 57.035 72.2701C57.3851 72.0191 57.6564 71.6645 57.8488 71.2063C58.0483 70.741 58.1475 70.1864 58.1464 69.5426C58.1454 68.8987 58.0443 68.3481 57.8432 67.8905C57.6493 67.433 57.3769 67.0829 57.0259 66.8403C56.6821 66.5905 56.292 66.466 55.8556 66.4667C55.4121 66.4674 55.0188 66.5933 54.6759 66.8443C54.3329 67.0881 54.0616 67.4391 53.8621 67.8972C53.6626 68.3554 53.5633 68.9064 53.5644 69.5503C53.5655 70.1941 53.6666 70.7484 53.8677 71.213C54.0687 71.6705 54.3412 72.0242 54.685 72.274C55.0288 72.5167 55.4224 72.6376 55.866 72.6369ZM60.2623 73.2948L60.2613 72.6617C60.7685 72.2602 61.2472 71.8552 61.6972 71.4467C62.1543 71.031 62.5578 70.6226 62.9077 70.2214C63.2647 69.8201 63.543 69.4262 63.7427 69.0396C63.9495 68.6529 64.0526 68.2807 64.052 67.923C64.0516 67.6584 64.0047 67.4116 63.9113 67.1829C63.825 66.9541 63.6817 66.7719 63.4811 66.6363C63.2806 66.4936 63.0086 66.4225 62.6652 66.4231C62.3362 66.4236 62.0609 66.4992 61.8393 66.6498C61.6178 66.7933 61.45 66.9867 61.336 67.2301C61.2291 67.4735 61.1759 67.7347 61.1763 68.0137L60.3071 68.0152C60.3063 67.5216 60.4093 67.0993 60.6162 66.7484C60.8231 66.3904 61.1052 66.1181 61.4626 65.9315C61.8199 65.7449 62.224 65.6512 62.6747 65.6504C63.34 65.6493 63.884 65.838 64.3067 66.2164C64.7365 66.5877 64.9521 67.1453 64.9533 67.8893C64.9541 68.3329 64.8439 68.773 64.6229 69.2098C64.4019 69.6394 64.12 70.0584 63.7773 70.4667C63.4346 70.8679 63.0668 71.2441 62.6739 71.5953C62.2882 71.9465 61.9275 72.2618 61.5917 72.5414L65.2187 72.5353L65.2199 73.2865L60.2623 73.2948ZM68.968 73.4089C68.4887 73.4098 68.0558 73.3246 67.6692 73.1536C67.2826 72.9754 66.9709 72.7112 66.7343 72.3611C66.5048 72.0109 66.3824 71.5748 66.3672 71.0525L67.2794 71.051C67.2872 71.4802 67.4381 71.852 67.7319 72.1663C68.0257 72.4734 68.4373 72.6265 68.9667 72.6256C69.4961 72.6247 69.8929 72.4774 70.1571 72.1836C70.4285 71.8899 70.5638 71.5355 70.5631 71.1206C70.5625 70.7701 70.4762 70.4841 70.3041 70.2626C70.1392 70.0411 69.9136 69.8769 69.6272 69.7701C69.3481 69.6633 69.0404 69.6101 68.7041 69.6107L68.1461 69.6116L68.1449 68.8498L68.7028 68.8488C69.1893 68.848 69.5683 68.7365 69.8397 68.5143C70.1184 68.292 70.2574 67.9806 70.2567 67.58C70.2561 67.2437 70.1448 66.9685 69.9226 66.7543C69.7077 66.5329 69.3855 66.4225 68.9563 66.4232C68.5414 66.4239 68.209 66.5497 67.959 66.8005C67.709 67.0441 67.57 67.352 67.542 67.724L66.6299 67.7256C66.6507 67.3178 66.7574 66.9563 66.95 66.6412C67.1498 66.3261 67.4212 66.0824 67.7643 65.9102C68.1074 65.7307 68.5043 65.6407 68.955 65.6399C69.4415 65.6391 69.8458 65.7242 70.168 65.8954C70.4974 66.0665 70.7446 66.295 70.9096 66.5809C71.0818 66.8668 71.1681 67.1814 71.1687 67.5248C71.1693 67.9039 71.0662 68.2511 70.8593 68.5662C70.6523 68.8742 70.3415 69.0821 69.9267 69.1901C70.3704 69.2824 70.7392 69.4928 71.0331 69.8214C71.3269 70.15 71.4743 70.5826 71.4752 71.1191C71.4759 71.534 71.38 71.9169 71.1874 72.2678C71.002 72.6115 70.7234 72.8873 70.3518 73.0954C69.9801 73.3035 69.5189 73.408 68.968 73.4089Z" fill="black"/>
<path d="M303.469 64.3328C303.782 64.6429 303.784 65.1487 303.473 65.4609L301.078 67.8643C300.698 68.2453 300.699 68.862 301.08 69.2418L303.483 71.637C303.796 71.9483 303.796 72.454 303.483 72.7652C303.172 73.0748 302.67 73.0748 302.359 72.7651L298.828 69.2456C298.447 68.8658 298.446 68.2491 298.825 67.868L302.345 64.3367C302.655 64.0259 303.157 64.0242 303.469 64.3328Z" fill="#D2D2D2"/>
<path d="M337.926 72.7074C337.612 72.3972 337.61 71.8915 337.922 71.5792L340.317 69.1759C340.697 68.7949 340.696 68.1781 340.315 67.7984L337.911 65.4031C337.599 65.0919 337.599 64.5861 337.911 64.2749C338.222 63.9653 338.725 63.9654 339.036 64.275L342.567 67.7946C342.948 68.1744 342.949 68.7911 342.569 69.1721L339.05 72.7035C338.74 73.0142 338.237 73.016 337.926 72.7074Z" fill="#D2D2D2"/>
<line x1="15.6322" y1="85.5027" x2="343.463" y2="84.9523" stroke="#D2D2D2" stroke-width="0.76416"/>
<path d="M32.5977 118.429C32.1075 118.43 31.6807 118.342 31.3175 118.164C30.9543 117.986 30.6737 117.738 30.4758 117.42C30.2779 117.102 30.1786 116.733 30.1779 116.313L31.0183 116.312C31.0188 116.573 31.0796 116.815 31.201 117.037C31.3223 117.253 31.4977 117.428 31.7272 117.562C31.963 117.689 32.2528 117.752 32.5966 117.751C33.0487 117.75 33.3987 117.642 33.6466 117.425C33.8946 117.208 34.0183 116.937 34.0177 116.612C34.0173 116.345 33.9596 116.132 33.8448 115.973C33.7299 115.807 33.5737 115.674 33.3761 115.572C33.1849 115.471 32.9619 115.382 32.7071 115.306C32.4587 115.23 32.1975 115.144 31.9235 115.049C31.4075 114.872 31.0251 114.653 30.7763 114.392C30.5276 114.125 30.4028 113.779 30.4021 113.352C30.3951 112.995 30.4774 112.68 30.6488 112.406C30.8203 112.126 31.0619 111.909 31.3736 111.755C31.6917 111.596 32.0672 111.515 32.5002 111.515C32.9268 111.514 33.2962 111.593 33.6085 111.752C33.9271 111.91 34.1726 112.13 34.345 112.409C34.5237 112.689 34.6166 113.007 34.6235 113.364L33.7831 113.365C33.7828 113.181 33.7347 112.999 33.6389 112.821C33.5431 112.637 33.3964 112.487 33.1988 112.373C33.0076 112.259 32.7656 112.202 32.4727 112.202C32.1097 112.197 31.8106 112.289 31.5754 112.481C31.3465 112.672 31.2323 112.937 31.2329 113.274C31.2334 113.561 31.3133 113.78 31.4728 113.933C31.6386 114.085 31.868 114.212 32.161 114.314C32.4541 114.409 32.7917 114.52 33.174 114.646C33.4925 114.76 33.7793 114.894 34.0342 115.046C34.2892 115.198 34.4869 115.395 34.6274 115.637C34.7742 115.879 34.8479 116.187 34.8486 116.563C34.8491 116.881 34.7668 117.184 34.6018 117.471C34.4367 117.751 34.1856 117.981 33.8484 118.16C33.5176 118.339 33.1007 118.428 32.5977 118.429ZM38.4057 118.42C37.9473 118.42 37.5301 118.332 37.1542 118.154C36.7846 117.97 36.488 117.687 36.2645 117.306C36.041 116.924 35.9288 116.437 35.9278 115.845L35.9207 111.624L36.723 111.622L36.7301 115.853C36.7312 116.503 36.8879 116.974 37.2004 117.266C37.5129 117.558 37.9206 117.704 38.4236 117.703C38.9266 117.702 39.3307 117.555 39.6358 117.262C39.941 116.968 40.093 116.497 40.0919 115.848L40.0848 111.617L40.8871 111.615L40.8941 115.837C40.8951 116.429 40.7845 116.916 40.5623 117.298C40.3401 117.681 40.0413 117.965 39.666 118.15C39.2906 118.329 38.8705 118.419 38.4057 118.42ZM42.2569 118.298L42.2456 111.613L43.0479 111.612L46.6193 116.964L46.6103 111.606L47.4126 111.604L47.4238 118.29L46.6215 118.291L43.0501 112.939L43.0591 118.297L42.2569 118.298Z" fill="#2B2B36"/>
<path d="M76.4377 118.239L76.4265 111.554L77.3624 111.552L79.777 116.209L82.1569 111.544L83.1024 111.543L83.1136 118.228L82.3113 118.23L82.3025 112.977L80.0749 117.278L79.4732 117.279L77.2311 112.995L77.2399 118.238L76.4377 118.239ZM87.5614 118.335C86.9055 118.336 86.3291 118.194 85.832 117.908C85.3412 117.616 84.9553 117.21 84.6743 116.688C84.3996 116.166 84.2617 115.565 84.2606 114.883C84.2594 114.202 84.3953 113.603 84.6682 113.087C84.9475 112.565 85.332 112.157 85.8218 111.863C86.318 111.569 86.8939 111.422 87.5497 111.421C88.2119 111.42 88.7884 111.565 89.2792 111.857C89.7763 112.149 90.1622 112.556 90.4368 113.078C90.7115 113.593 90.8494 114.191 90.8505 114.872C90.8517 115.554 90.7158 116.156 90.4429 116.678C90.17 117.201 89.7854 117.609 89.2893 117.903C88.7995 118.19 88.2235 118.334 87.5614 118.335ZM87.5602 117.629C88.0504 117.628 88.48 117.519 88.849 117.302C89.2242 117.078 89.5134 116.763 89.7165 116.355C89.9259 115.94 90.0301 115.447 90.0292 114.874C90.0282 114.301 89.9223 113.811 89.7115 113.404C89.5071 112.996 89.2169 112.685 88.8408 112.469C88.4712 112.247 88.0412 112.136 87.5509 112.137C87.0607 112.138 86.6279 112.25 86.2526 112.473C85.8837 112.69 85.5945 113.003 85.3851 113.411C85.182 113.819 85.081 114.309 85.0819 114.882C85.0829 115.455 85.1856 115.948 85.39 116.362C85.6008 116.769 85.8911 117.084 86.2607 117.306C86.6368 117.522 87.0699 117.629 87.5602 117.629ZM92.0135 118.213L92.0023 111.528L92.8045 111.526L96.3759 116.878L96.3669 111.52L97.1692 111.519L97.1804 118.205L96.3781 118.206L92.8068 112.854L92.8157 118.212L92.0135 118.213Z" fill="#2B2B36"/>
<path d="M128.454 118.152L128.444 112.126L126.448 112.129L126.447 111.47L131.241 111.462L131.242 112.121L129.246 112.125L129.256 118.151L128.454 118.152ZM134.648 118.257C134.19 118.257 133.773 118.169 133.397 117.991C133.027 117.807 132.731 117.524 132.507 117.143C132.284 116.761 132.171 116.274 132.17 115.682L132.163 111.461L132.966 111.459L132.973 115.69C132.974 116.34 133.131 116.811 133.443 117.103C133.756 117.395 134.163 117.541 134.666 117.54C135.169 117.539 135.573 117.392 135.879 117.099C136.184 116.805 136.336 116.334 136.335 115.685L136.327 111.454L137.13 111.452L137.137 115.674C137.138 116.266 137.027 116.753 136.805 117.135C136.583 117.518 136.284 117.802 135.909 117.987C135.533 118.166 135.113 118.256 134.648 118.257ZM138.5 118.135L138.488 111.45L142.624 111.443L142.625 112.102L139.292 112.108L139.296 114.438L142.342 114.433L142.343 115.082L139.297 115.087L139.301 117.475L142.634 117.47L142.635 118.129L138.5 118.135Z" fill="#2B2B36"/>
<path d="M173.99 118.086L172.145 111.394L173.005 111.392L174.457 117.13L176.09 111.387L176.978 111.386L178.583 117.123L180.034 111.381L180.894 111.379L179.033 118.068L178.116 118.069L176.512 112.552L174.888 118.075L173.99 118.086ZM181.849 118.063L181.837 111.378L185.973 111.371L185.974 112.03L182.641 112.035L182.645 114.366L185.691 114.36L185.692 115.01L182.646 115.015L182.65 117.403L185.983 117.397L185.984 118.056L181.849 118.063ZM187.24 118.054L187.228 111.368L189.282 111.365C190.46 111.363 191.326 111.661 191.881 112.258C192.442 112.856 192.724 113.677 192.726 114.721C192.727 115.746 192.449 116.558 191.889 117.158C191.336 117.751 190.471 118.049 189.293 118.05L187.24 118.054ZM188.041 117.384L189.273 117.382C189.922 117.381 190.438 117.275 190.819 117.064C191.207 116.847 191.484 116.541 191.649 116.146C191.814 115.745 191.896 115.27 191.895 114.722C191.894 114.162 191.81 113.682 191.644 113.281C191.478 112.88 191.2 112.572 190.812 112.356C190.429 112.14 189.913 112.032 189.264 112.034L188.032 112.036L188.041 117.384Z" fill="#2B2B36"/>
<path d="M223.639 117.993L223.629 111.967L221.633 111.97L221.631 111.311L226.426 111.303L226.427 111.962L224.431 111.965L224.441 117.992L223.639 117.993ZM227.417 117.987L227.406 111.301L228.208 111.3L228.213 114.251L231.68 114.245L231.675 111.294L232.477 111.293L232.488 117.978L231.686 117.98L231.681 114.904L228.214 114.91L228.219 117.985L227.417 117.987ZM236.315 118.086C235.857 118.087 235.44 117.999 235.064 117.821C234.694 117.637 234.398 117.354 234.174 116.973C233.951 116.591 233.838 116.104 233.837 115.512L233.83 111.29L234.633 111.289L234.64 115.52C234.641 116.17 234.798 116.64 235.11 116.933C235.423 117.225 235.83 117.371 236.333 117.37C236.836 117.369 237.24 117.222 237.546 116.929C237.851 116.635 238.003 116.164 238.002 115.514L237.994 111.284L238.797 111.282L238.804 115.504C238.805 116.096 238.694 116.583 238.472 116.965C238.25 117.348 237.951 117.632 237.576 117.817C237.2 117.996 236.78 118.086 236.315 118.086Z" fill="#2B2B36"/>
<path d="M272.495 117.911L272.484 111.226L276.553 111.219L276.554 111.878L273.287 111.884L273.291 114.233L276.071 114.228L276.072 114.878L273.292 114.882L273.297 117.91L272.495 117.911ZM277.597 117.903L277.586 111.217L279.744 111.214C280.266 111.213 280.693 111.298 281.024 111.469C281.356 111.641 281.601 111.876 281.761 112.175C281.921 112.474 282.001 112.805 282.001 113.168C282.002 113.588 281.888 113.967 281.66 114.305C281.437 114.643 281.087 114.882 280.61 115.023L282.076 117.895L281.131 117.897L279.77 115.139L279.713 115.139L278.395 115.141L278.399 117.901L277.597 117.903ZM278.394 114.511L279.692 114.509C280.208 114.508 280.584 114.383 280.819 114.134C281.054 113.886 281.171 113.567 281.171 113.179C281.17 112.784 281.052 112.472 280.816 112.243C280.586 112.008 280.207 111.891 279.679 111.892L278.389 111.894L278.394 114.511ZM283.258 117.893L283.247 111.208L284.049 111.206L284.061 117.892L283.258 117.893Z" fill="#2B2B36"/>
<path d="M320.754 117.945C320.263 117.946 319.837 117.858 319.473 117.68C319.11 117.502 318.83 117.254 318.632 116.936C318.434 116.618 318.335 116.249 318.334 115.829L319.174 115.828C319.175 116.089 319.236 116.331 319.357 116.553C319.478 116.769 319.654 116.944 319.883 117.078C320.119 117.205 320.409 117.268 320.753 117.267C321.205 117.266 321.555 117.158 321.803 116.941C322.051 116.724 322.174 116.453 322.174 116.128C322.173 115.861 322.116 115.648 322.001 115.489C321.886 115.323 321.73 115.19 321.532 115.088C321.341 114.987 321.118 114.898 320.863 114.822C320.615 114.746 320.353 114.66 320.079 114.565C319.563 114.388 319.181 114.169 318.932 113.908C318.684 113.641 318.559 113.295 318.558 112.868C318.551 112.511 318.633 112.196 318.805 111.922C318.976 111.642 319.218 111.425 319.53 111.271C319.848 111.112 320.223 111.031 320.656 111.031C321.083 111.03 321.452 111.109 321.764 111.268C322.083 111.426 322.329 111.645 322.501 111.925C322.68 112.205 322.773 112.523 322.78 112.88L321.939 112.881C321.939 112.697 321.891 112.515 321.795 112.337C321.699 112.153 321.552 112.003 321.355 111.889C321.164 111.775 320.922 111.718 320.629 111.718C320.266 111.713 319.967 111.805 319.731 111.997C319.502 112.188 319.388 112.453 319.389 112.79C319.389 113.077 319.469 113.296 319.629 113.449C319.795 113.601 320.024 113.728 320.317 113.83C320.61 113.925 320.948 114.035 321.33 114.162C321.649 114.276 321.935 114.409 322.19 114.562C322.445 114.714 322.643 114.911 322.783 115.153C322.93 115.395 323.004 115.703 323.005 116.079C323.005 116.397 322.923 116.7 322.758 116.987C322.593 117.267 322.342 117.497 322.004 117.676C321.674 117.855 321.257 117.944 320.754 117.945ZM323.725 117.826L326.178 111.136L327.028 111.135L329.494 117.816L328.644 117.817L328.029 116.099L325.183 116.104L324.565 117.824L323.725 117.826ZM325.421 115.454L327.79 115.45L326.6 112.148L325.421 115.454ZM331.298 117.813L331.288 111.786L329.292 111.79L329.291 111.131L334.085 111.123L334.087 111.782L332.09 111.785L332.101 117.812L331.298 117.813Z" fill="#2B2B36"/>
<path d="M232.047 155.494L232.033 147.392L230.523 147.728L230.522 146.953L232.406 146.134L233.168 146.133L233.183 155.492L232.047 155.494Z" fill="#0D0D0D"/>
<path d="M278.723 155.417L278.722 154.628C279.354 154.128 279.951 153.623 280.511 153.114C281.081 152.596 281.584 152.087 282.02 151.587C282.464 151.088 282.811 150.597 283.06 150.115C283.318 149.633 283.446 149.169 283.446 148.724C283.445 148.394 283.386 148.086 283.27 147.801C283.163 147.516 282.984 147.289 282.734 147.12C282.484 146.943 282.145 146.854 281.718 146.855C281.307 146.855 280.964 146.95 280.688 147.137C280.412 147.316 280.203 147.557 280.061 147.86C279.928 148.164 279.862 148.489 279.862 148.837L278.779 148.838C278.778 148.223 278.907 147.697 279.164 147.26C279.422 146.814 279.774 146.475 280.219 146.242C280.664 146.01 281.168 145.893 281.729 145.892C282.558 145.891 283.236 146.126 283.763 146.597C284.298 147.06 284.567 147.755 284.569 148.682C284.57 149.234 284.432 149.783 284.157 150.327C283.881 150.862 283.53 151.384 283.103 151.893C282.676 152.393 282.218 152.862 281.728 153.299C281.248 153.737 280.798 154.13 280.38 154.478L284.899 154.471L284.901 155.407L278.723 155.417Z" fill="#0D0D0D"/>
<path d="M331.228 155.489C330.631 155.49 330.091 155.384 329.61 155.17C329.128 154.948 328.74 154.619 328.445 154.183C328.159 153.747 328.006 153.203 327.987 152.552L329.124 152.551C329.134 153.085 329.322 153.549 329.688 153.94C330.054 154.323 330.567 154.514 331.226 154.513C331.886 154.511 332.38 154.328 332.71 153.962C333.048 153.596 333.216 153.154 333.216 152.637C333.215 152.2 333.107 151.844 332.893 151.568C332.687 151.292 332.406 151.088 332.049 150.954C331.702 150.821 331.318 150.755 330.899 150.756L330.204 150.757L330.202 149.808L330.898 149.807C331.504 149.805 331.976 149.667 332.314 149.39C332.661 149.113 332.835 148.725 332.834 148.225C332.833 147.807 332.694 147.464 332.418 147.197C332.15 146.921 331.748 146.783 331.213 146.784C330.696 146.785 330.282 146.942 329.971 147.254C329.659 147.558 329.486 147.941 329.451 148.405L328.315 148.407C328.341 147.899 328.473 147.448 328.714 147.056C328.962 146.663 329.301 146.359 329.728 146.145C330.156 145.921 330.65 145.809 331.212 145.808C331.818 145.807 332.322 145.913 332.723 146.126C333.134 146.34 333.442 146.624 333.647 146.981C333.862 147.337 333.969 147.729 333.97 148.157C333.971 148.629 333.842 149.062 333.585 149.454C333.327 149.838 332.939 150.097 332.423 150.232C332.975 150.347 333.435 150.609 333.801 151.018C334.167 151.428 334.351 151.967 334.352 152.635C334.353 153.152 334.233 153.629 333.993 154.067C333.762 154.495 333.415 154.839 332.952 155.098C332.489 155.357 331.914 155.487 331.228 155.489Z" fill="#0D0D0D"/>
<path d="M35.2152 193.975L35.2119 191.969L30.4652 191.977L30.4637 191.108L34.999 184.615L36.3093 184.613L36.32 190.978L37.7106 190.975L37.7122 191.965L36.3217 191.967L36.325 193.973L35.2152 193.975ZM31.707 190.985L35.2637 190.979L35.2551 185.858L31.707 190.985Z" fill="#0D0D0D"/>
<path d="M83.6526 194.055C83.0107 194.056 82.4534 193.941 81.9806 193.71C81.5078 193.479 81.1284 193.163 80.8425 192.763C80.5655 192.353 80.3953 191.89 80.332 191.373L81.4285 191.371C81.5363 191.888 81.7866 192.306 82.1793 192.627C82.5721 192.938 83.0671 193.093 83.6643 193.092C84.11 193.091 84.4931 192.988 84.8137 192.783C85.1342 192.568 85.3789 192.283 85.5477 191.926C85.7253 191.569 85.8138 191.172 85.8131 190.735C85.8119 190.04 85.6149 189.479 85.2219 189.051C84.829 188.624 84.3205 188.411 83.6966 188.412C83.1796 188.413 82.7385 188.53 82.3734 188.762C82.0083 188.994 81.7414 189.298 81.5727 189.673L80.503 189.674L81.2967 184.539L86.2038 184.53L86.2054 185.507L82.1674 185.513L81.624 188.362C81.8375 188.103 82.1313 187.889 82.5054 187.719C82.8884 187.549 83.325 187.464 83.8153 187.463C84.4304 187.462 84.9655 187.603 85.4205 187.888C85.8845 188.172 86.2462 188.559 86.5055 189.049C86.7649 189.539 86.8951 190.096 86.8961 190.72C86.8971 191.317 86.7688 191.87 86.5111 192.379C86.2624 192.887 85.8931 193.293 85.4034 193.597C84.9225 193.901 84.3389 194.054 83.6526 194.055Z" fill="#0D0D0D"/>
<path d="M133.277 193.973C132.599 193.974 132.029 193.85 131.565 193.601C131.101 193.343 130.726 193.001 130.44 192.574C130.163 192.146 129.957 191.67 129.822 191.144C129.697 190.609 129.633 190.066 129.633 189.513C129.631 188.479 129.772 187.574 130.056 186.798C130.34 186.013 130.749 185.402 131.283 184.964C131.826 184.517 132.481 184.293 133.247 184.292C133.836 184.291 134.339 184.406 134.759 184.637C135.178 184.868 135.508 185.18 135.75 185.572C136 185.954 136.157 186.382 136.22 186.854L135.177 186.856C135.078 186.348 134.859 185.956 134.52 185.681C134.181 185.405 133.753 185.267 133.236 185.268C132.531 185.269 131.939 185.605 131.459 186.274C130.988 186.934 130.735 187.969 130.702 189.377C130.915 188.958 131.253 188.597 131.716 188.293C132.188 187.98 132.754 187.823 133.414 187.822C133.949 187.821 134.448 187.945 134.912 188.194C135.385 188.442 135.769 188.794 136.064 189.248C136.358 189.693 136.506 190.219 136.507 190.825C136.508 191.351 136.38 191.855 136.122 192.337C135.864 192.818 135.491 193.211 135.001 193.515C134.52 193.819 133.945 193.972 133.277 193.973ZM133.195 192.983C133.614 192.983 133.988 192.893 134.318 192.714C134.647 192.535 134.905 192.29 135.092 191.977C135.279 191.656 135.372 191.291 135.371 190.88C135.37 190.248 135.16 189.744 134.74 189.371C134.329 188.988 133.812 188.797 133.188 188.798C132.769 188.799 132.395 188.898 132.065 189.094C131.736 189.282 131.473 189.537 131.278 189.858C131.091 190.179 130.998 190.527 130.999 190.901C130.999 191.302 131.094 191.663 131.281 191.984C131.478 192.295 131.741 192.54 132.071 192.718C132.402 192.896 132.776 192.984 133.195 192.983Z" fill="#0D0D0D"/>
<path d="M180.876 193.732L184.579 185.328L179.444 185.337L179.443 184.374L185.727 184.364L185.729 185.206L182.066 193.73L180.876 193.732Z" fill="#0D0D0D"/>
<path d="M232.213 193.805C231.598 193.806 231.045 193.696 230.554 193.473C230.063 193.243 229.675 192.927 229.389 192.526C229.112 192.117 228.973 191.644 228.972 191.109C228.971 190.539 229.135 190.026 229.464 189.571C229.802 189.116 230.248 188.812 230.8 188.66C230.292 188.491 229.899 188.22 229.622 187.846C229.345 187.472 229.206 187.062 229.205 186.616C229.205 186.162 229.324 185.747 229.564 185.372C229.804 184.989 230.147 184.685 230.592 184.461C231.038 184.238 231.572 184.125 232.196 184.124C232.82 184.123 233.355 184.234 233.801 184.456C234.248 184.678 234.591 184.981 234.833 185.363C235.074 185.737 235.195 186.152 235.196 186.606C235.196 187.043 235.059 187.453 234.783 187.837C234.508 188.212 234.116 188.485 233.608 188.655C234.161 188.805 234.603 189.108 234.933 189.562C235.273 190.016 235.443 190.528 235.444 191.099C235.445 191.633 235.303 192.106 235.018 192.517C234.743 192.918 234.36 193.235 233.87 193.468C233.38 193.692 232.828 193.804 232.213 193.805ZM232.203 188.256C232.774 188.255 233.224 188.112 233.553 187.826C233.891 187.531 234.06 187.148 234.059 186.675C234.058 186.149 233.893 185.753 233.563 185.486C233.232 185.219 232.777 185.086 232.198 185.087C231.619 185.088 231.164 185.223 230.835 185.491C230.514 185.759 230.355 186.155 230.355 186.681C230.356 187.154 230.522 187.537 230.852 187.83C231.182 188.115 231.633 188.257 232.203 188.256ZM232.211 192.816C232.915 192.814 233.441 192.653 233.788 192.332C234.144 192.001 234.322 191.568 234.321 191.034C234.32 190.428 234.127 189.969 233.743 189.657C233.36 189.346 232.847 189.191 232.205 189.192C231.563 189.193 231.051 189.35 230.668 189.663C230.285 189.975 230.094 190.435 230.095 191.041C230.096 191.576 230.271 192.008 230.619 192.337C230.976 192.657 231.507 192.817 232.211 192.816Z" fill="#0D0D0D"/>
<path d="M281.637 193.721C281.048 193.722 280.545 193.607 280.125 193.376C279.706 193.145 279.371 192.838 279.121 192.455C278.88 192.063 278.732 191.631 278.677 191.159L279.72 191.157C279.81 191.665 280.025 192.057 280.364 192.333C280.703 192.609 281.131 192.746 281.648 192.745C282.362 192.744 282.954 192.413 283.425 191.753C283.896 191.083 284.149 190.044 284.182 188.636C283.969 189.055 283.626 189.421 283.154 189.734C282.691 190.038 282.13 190.19 281.47 190.192C280.944 190.192 280.445 190.068 279.972 189.82C279.499 189.571 279.115 189.224 278.821 188.779C278.526 188.325 278.378 187.794 278.377 187.188C278.376 186.662 278.504 186.158 278.762 185.677C279.028 185.195 279.402 184.802 279.883 184.498C280.364 184.194 280.939 184.042 281.607 184.041C282.285 184.04 282.855 184.168 283.319 184.426C283.783 184.674 284.154 185.012 284.431 185.44C284.717 185.867 284.923 186.348 285.048 186.883C285.183 187.409 285.251 187.948 285.252 188.5C285.253 189.534 285.112 190.444 284.828 191.229C284.544 192.005 284.131 192.616 283.588 193.063C283.054 193.5 282.403 193.72 281.637 193.721ZM281.696 189.215C282.115 189.214 282.489 189.12 282.819 188.932C283.148 188.736 283.411 188.477 283.606 188.156C283.802 187.834 283.899 187.487 283.899 187.112C283.898 186.711 283.799 186.355 283.603 186.043C283.406 185.722 283.143 185.473 282.813 185.296C282.483 185.118 282.108 185.029 281.689 185.03C281.27 185.031 280.896 185.12 280.566 185.299C280.237 185.478 279.979 185.728 279.792 186.049C279.605 186.362 279.512 186.723 279.513 187.133C279.514 187.766 279.72 188.274 280.131 188.656C280.55 189.03 281.072 189.216 281.696 189.215Z" fill="#0D0D0D"/>
<path d="M326.568 193.486L326.554 185.384L325.044 185.72L325.042 184.945L326.926 184.126L327.689 184.125L327.704 193.485L326.568 193.486ZM333.33 193.636C332.501 193.637 331.784 193.438 331.177 193.037C330.579 192.628 330.119 192.063 329.797 191.342C329.474 190.611 329.313 189.765 329.311 188.802C329.309 187.839 329.468 186.997 329.788 186.274C330.108 185.543 330.566 184.976 331.162 184.574C331.768 184.163 332.485 183.956 333.314 183.955C334.143 183.954 334.857 184.157 335.455 184.566C336.052 184.967 336.512 185.532 336.835 186.262C337.157 186.984 337.319 187.826 337.32 188.789C337.322 189.751 337.163 190.598 336.843 191.33C336.523 192.052 336.065 192.619 335.469 193.03C334.872 193.432 334.159 193.634 333.33 193.636ZM333.329 192.646C333.873 192.645 334.358 192.493 334.785 192.189C335.222 191.876 335.56 191.435 335.799 190.864C336.048 190.284 336.172 189.593 336.17 188.791C336.169 187.988 336.043 187.302 335.792 186.732C335.551 186.162 335.211 185.726 334.774 185.423C334.346 185.112 333.86 184.957 333.316 184.958C332.763 184.959 332.273 185.116 331.846 185.428C331.418 185.732 331.08 186.169 330.832 186.74C330.583 187.311 330.46 187.998 330.461 188.8C330.462 189.602 330.588 190.293 330.839 190.872C331.089 191.442 331.429 191.883 331.857 192.194C332.286 192.496 332.776 192.647 333.329 192.646Z" fill="#0D0D0D"/>
<path d="M31.9748 232.132L31.9612 224.03L30.4508 224.366L30.4495 223.591L32.3335 222.772L33.0956 222.771L33.1113 232.131L31.9748 232.132ZM36.0096 232.126L35.996 224.023L34.4856 224.36L34.4843 223.584L36.3683 222.765L37.1304 222.764L37.1461 232.124L36.0096 232.126Z" fill="#0D0D0D"/>
<path d="M79.7132 232.053L79.6996 223.951L78.1892 224.287L78.1879 223.512L80.0719 222.693L80.834 222.692L80.8497 232.052L79.7132 232.053ZM82.6783 232.048L82.677 231.26C83.309 230.759 83.9054 230.255 84.4662 229.746C85.0358 229.228 85.5386 228.719 85.9745 228.219C86.4194 227.719 86.7662 227.228 87.015 226.746C87.2727 226.265 87.4011 225.801 87.4004 225.355C87.3998 225.025 87.3414 224.718 87.225 224.433C87.1176 224.148 86.9389 223.921 86.689 223.752C86.4392 223.574 86.1003 223.485 85.6724 223.486C85.2624 223.487 84.9193 223.581 84.6433 223.769C84.3673 223.947 84.1582 224.188 84.0161 224.492C83.8829 224.795 83.8166 225.12 83.8172 225.468L82.7341 225.47C82.7331 224.855 82.8615 224.329 83.1192 223.891C83.377 223.445 83.7285 223.106 84.1738 222.873C84.6191 222.641 85.1226 222.524 85.6842 222.523C86.5132 222.522 87.191 222.757 87.7177 223.229C88.2533 223.691 88.5219 224.386 88.5235 225.313C88.5244 225.866 88.3872 226.414 88.1118 226.958C87.8363 227.494 87.4851 228.016 87.0581 228.525C86.631 229.024 86.1728 229.493 85.6832 229.931C85.2026 230.368 84.7531 230.761 84.3347 231.11L88.8541 231.102L88.8557 232.038L82.6783 232.048Z" fill="#0D0D0D"/>
<path d="M129.156 231.97L129.142 223.867L127.632 224.204L127.63 223.428L129.514 222.609L130.276 222.608L130.292 231.968L129.156 231.97ZM135.183 232.12C134.586 232.121 134.046 232.015 133.565 231.802C133.083 231.58 132.694 231.251 132.4 230.814C132.114 230.378 131.961 229.835 131.942 229.184L133.079 229.182C133.089 229.717 133.277 230.18 133.643 230.572C134.009 230.954 134.522 231.145 135.181 231.144C135.841 231.143 136.335 230.959 136.665 230.593C137.003 230.227 137.171 229.786 137.17 229.269C137.17 228.832 137.062 228.475 136.848 228.2C136.642 227.924 136.361 227.719 136.004 227.586C135.656 227.453 135.273 227.387 134.854 227.387L134.159 227.388L134.157 226.439L134.852 226.438C135.459 226.437 135.931 226.298 136.269 226.021C136.616 225.744 136.789 225.356 136.789 224.857C136.788 224.438 136.649 224.095 136.372 223.828C136.105 223.552 135.703 223.415 135.168 223.416C134.651 223.416 134.237 223.573 133.926 223.886C133.614 224.189 133.441 224.573 133.406 225.036L132.27 225.038C132.295 224.53 132.428 224.08 132.668 223.687C132.917 223.294 133.256 222.991 133.683 222.776C134.111 222.553 134.605 222.44 135.167 222.439C135.773 222.438 136.277 222.545 136.678 222.758C137.089 222.971 137.397 223.256 137.602 223.612C137.817 223.968 137.924 224.36 137.925 224.788C137.926 225.261 137.797 225.693 137.539 226.086C137.282 226.469 136.894 226.729 136.377 226.863C136.93 226.978 137.39 227.24 137.756 227.65C138.122 228.059 138.306 228.598 138.307 229.267C138.308 229.784 138.188 230.261 137.948 230.698C137.717 231.126 137.37 231.47 136.907 231.729C136.444 231.989 135.869 232.119 135.183 232.12Z" fill="#0D0D0D"/>
<path d="M178.57 232.125L178.557 224.021L177.046 224.358L177.045 223.582L178.929 222.763L179.691 222.762L179.707 232.123L178.57 232.125ZM185.922 232.113L185.919 230.107L181.172 230.115L181.17 229.245L185.706 222.752L187.016 222.75L187.027 229.115L188.418 229.113L188.42 230.102L187.029 230.105L187.032 232.111L185.922 232.113ZM182.414 229.123L185.971 229.117L185.962 223.995L182.414 229.123Z" fill="#0D0D0D"/>
<circle cx="182.829" cy="242.641" r="3.57692" transform="rotate(-0.0961842 182.829 242.641)" fill="#FF0000"/>
<circle cx="232.841" cy="203.209" r="3.57692" transform="rotate(-0.0961842 232.841 203.209)" fill="#FF0000"/>
<path d="M228.086 231.804L228.073 223.701L226.562 224.038L226.561 223.262L228.445 222.444L229.207 222.442L229.223 231.802L228.086 231.804ZM234.381 231.954C233.739 231.955 233.182 231.84 232.709 231.609C232.236 231.378 231.857 231.062 231.571 230.662C231.294 230.252 231.124 229.789 231.06 229.272L232.157 229.27C232.265 229.787 232.515 230.205 232.908 230.526C233.3 230.837 233.795 230.992 234.393 230.991C234.838 230.99 235.221 230.887 235.542 230.682C235.863 230.467 236.107 230.181 236.276 229.825C236.454 229.468 236.542 229.071 236.541 228.634C236.54 227.939 236.343 227.378 235.95 226.95C235.557 226.523 235.049 226.31 234.425 226.311C233.908 226.312 233.467 226.429 233.102 226.661C232.737 226.893 232.47 227.197 232.301 227.572L231.231 227.573L232.025 222.438L236.932 222.429L236.934 223.405L232.896 223.412L232.352 226.261C232.566 226.002 232.86 225.788 233.234 225.618C233.617 225.448 234.053 225.362 234.544 225.362C235.159 225.361 235.694 225.502 236.149 225.787C236.613 226.071 236.975 226.458 237.234 226.948C237.493 227.438 237.623 227.995 237.624 228.619C237.625 229.216 237.497 229.769 237.239 230.278C236.991 230.786 236.621 231.192 236.132 231.496C235.651 231.8 235.067 231.953 234.381 231.954Z" fill="#0D0D0D"/>
<path d="M277.515 231.72L277.502 223.617L275.992 223.954L275.99 223.179L277.874 222.36L278.636 222.359L278.652 231.718L277.515 231.72ZM283.997 231.87C283.32 231.871 282.749 231.747 282.285 231.498C281.821 231.24 281.446 230.898 281.16 230.471C280.883 230.043 280.678 229.567 280.543 229.041C280.417 228.506 280.354 227.963 280.353 227.41C280.351 226.376 280.492 225.471 280.776 224.695C281.06 223.91 281.469 223.299 282.003 222.861C282.546 222.414 283.201 222.19 283.968 222.189C284.556 222.188 285.06 222.303 285.479 222.534C285.899 222.765 286.229 223.077 286.47 223.469C286.721 223.851 286.877 224.279 286.94 224.751L285.898 224.753C285.799 224.245 285.58 223.853 285.24 223.578C284.901 223.302 284.473 223.164 283.956 223.165C283.252 223.166 282.66 223.502 282.179 224.171C281.708 224.831 281.456 225.866 281.422 227.274C281.636 226.855 281.974 226.494 282.437 226.19C282.909 225.877 283.475 225.72 284.134 225.719C284.669 225.718 285.168 225.842 285.632 226.091C286.105 226.339 286.489 226.691 286.784 227.145C287.079 227.59 287.227 228.116 287.228 228.722C287.229 229.248 287.1 229.752 286.843 230.234C286.585 230.715 286.211 231.108 285.722 231.412C285.241 231.716 284.666 231.869 283.997 231.87ZM283.916 230.88C284.335 230.88 284.709 230.79 285.038 230.611C285.368 230.432 285.626 230.187 285.813 229.874C285.999 229.553 286.092 229.188 286.091 228.777C286.09 228.145 285.88 227.641 285.461 227.268C285.05 226.885 284.533 226.694 283.909 226.695C283.49 226.696 283.115 226.795 282.786 226.991C282.456 227.179 282.194 227.434 281.998 227.755C281.812 228.076 281.719 228.424 281.719 228.798C281.72 229.199 281.814 229.56 282.002 229.881C282.198 230.192 282.462 230.437 282.792 230.615C283.122 230.793 283.497 230.881 283.916 230.88Z" fill="#0D0D0D"/>
<path d="M327.011 231.057L326.998 222.953L325.487 223.29L325.486 222.514L327.37 221.695L328.132 221.694L328.148 231.055L327.011 231.057ZM330.899 231.05L334.603 222.646L329.468 222.654L329.466 221.692L335.751 221.681L335.753 222.523L332.09 231.048L330.899 231.05Z" fill="#0D0D0D"/>
<path d="M29.9742 270.286L29.9606 262.184L28.4502 262.52L28.4489 261.745L30.3329 260.926L31.095 260.925L31.1107 270.284L29.9742 270.286ZM36.1753 270.436C35.5603 270.437 35.0074 270.327 34.5168 270.105C34.0261 269.874 33.6378 269.558 33.3519 269.157C33.0749 268.748 32.9359 268.276 32.935 267.741C32.9341 267.17 33.0981 266.658 33.4272 266.202C33.7652 265.747 34.2103 265.443 34.7628 265.291C34.2544 265.122 33.8617 264.851 33.5847 264.477C33.3078 264.103 33.1689 263.694 33.1682 263.248C33.1674 262.793 33.2871 262.379 33.5271 262.004C33.7671 261.62 34.1098 261.316 34.5551 261.093C35.0005 260.869 35.5351 260.757 36.1591 260.756C36.7831 260.755 37.3181 260.865 37.7642 261.087C38.2102 261.309 38.5539 261.612 38.7953 261.995C39.0366 262.369 39.1576 262.783 39.1584 263.238C39.1591 263.675 39.0216 264.085 38.7459 264.469C38.4702 264.843 38.0785 265.116 37.5707 265.286C38.1236 265.437 38.5653 265.739 38.8959 266.193C39.2354 266.647 39.4056 267.16 39.4066 267.73C39.4075 268.265 39.2656 268.738 38.9811 269.148C38.7054 269.55 38.3227 269.867 37.8328 270.099C37.3429 270.323 36.7904 270.435 36.1753 270.436ZM36.166 264.887C36.7365 264.886 37.1864 264.743 37.5158 264.457C37.854 264.163 38.0227 263.779 38.0219 263.307C38.0211 262.781 37.8555 262.384 37.5252 262.117C37.195 261.85 36.7401 261.718 36.1607 261.719C35.5813 261.719 35.1269 261.854 34.7975 262.122C34.4771 262.39 34.3173 262.787 34.3182 263.313C34.319 263.785 34.4845 264.168 34.8148 264.462C35.1451 264.747 35.5955 264.888 36.166 264.887ZM36.1737 269.447C36.8779 269.446 37.4035 269.284 37.7506 268.963C38.1067 268.632 38.2842 268.2 38.2833 267.665C38.2823 267.059 38.0899 266.6 37.706 266.289C37.3222 265.977 36.8094 265.822 36.1676 265.823C35.5258 265.824 35.0135 265.981 34.6307 266.294C34.248 266.607 34.0571 267.066 34.0581 267.672C34.059 268.207 34.2335 268.639 34.5817 268.968C34.9388 269.289 35.4695 269.448 36.1737 269.447Z" fill="#0D0D0D"/>
<path d="M79.3905 270.203L79.3769 262.1L77.8665 262.437L77.8652 261.661L79.7492 260.842L80.5113 260.841L80.527 270.201L79.3905 270.203ZM85.5916 270.353C85.0033 270.354 84.4995 270.239 84.0801 270.007C83.6608 269.776 83.326 269.469 83.0758 269.087C82.8344 268.695 82.6866 268.263 82.6324 267.79L83.6753 267.789C83.7653 268.297 83.9799 268.688 84.3191 268.964C84.6583 269.24 85.0864 269.377 85.6034 269.376C86.3165 269.375 86.9087 269.044 87.3801 268.384C87.8514 267.715 88.1037 266.676 88.137 265.267C87.9237 265.687 87.5812 266.053 87.1092 266.365C86.6462 266.669 86.0849 266.822 85.4253 266.823C84.8993 266.824 84.4 266.7 83.9271 266.451C83.4542 266.202 83.0704 265.855 82.7754 265.41C82.4805 264.956 82.3325 264.426 82.3315 263.82C82.3306 263.294 82.4591 262.79 82.7168 262.308C82.9834 261.826 83.3571 261.433 83.8379 261.13C84.3188 260.826 84.8935 260.673 85.562 260.672C86.2395 260.671 86.8102 260.799 87.2742 261.057C87.7381 261.306 88.1086 261.644 88.3857 262.071C88.6716 262.499 88.8774 262.98 89.0031 263.514C89.1377 264.04 89.2055 264.579 89.2064 265.132C89.2082 266.166 89.0671 267.075 88.7831 267.86C88.4992 268.636 88.0857 269.248 87.5427 269.694C87.0086 270.132 86.3582 270.351 85.5916 270.353ZM85.6509 265.846C86.0699 265.846 86.4441 265.752 86.7736 265.564C87.1031 265.367 87.3656 265.108 87.5612 264.787C87.7568 264.466 87.8542 264.118 87.8536 263.744C87.8529 263.342 87.7543 262.986 87.5577 262.674C87.361 262.354 87.0976 262.105 86.7675 261.927C86.4374 261.749 86.0629 261.661 85.6439 261.661C85.225 261.662 84.8507 261.752 84.5212 261.931C84.1917 262.11 83.9336 262.36 83.7469 262.681C83.5603 262.993 83.4673 263.354 83.468 263.764C83.469 264.397 83.6749 264.905 84.0856 265.288C84.5052 265.661 85.027 265.848 85.6509 265.846Z" fill="#0D0D0D"/>
<path d="M125.7 270.126L125.699 269.337C126.331 268.837 126.927 268.332 127.488 267.823C128.058 267.305 128.56 266.796 128.996 266.296C129.441 265.796 129.788 265.306 130.037 264.824C130.295 264.342 130.423 263.878 130.422 263.433C130.422 263.103 130.363 262.795 130.247 262.51C130.139 262.225 129.961 261.998 129.711 261.829C129.461 261.651 129.122 261.563 128.694 261.564C128.284 261.564 127.941 261.658 127.665 261.846C127.389 262.025 127.18 262.266 127.038 262.569C126.905 262.872 126.838 263.198 126.839 263.546L125.756 263.547C125.755 262.932 125.883 262.406 126.141 261.969C126.399 261.523 126.75 261.183 127.196 260.951C127.641 260.718 128.144 260.602 128.706 260.601C129.535 260.599 130.213 260.834 130.74 261.306C131.275 261.769 131.544 262.463 131.545 263.391C131.546 263.943 131.409 264.492 131.134 265.036C130.858 265.571 130.507 266.093 130.08 266.602C129.653 267.102 129.195 267.571 128.705 268.008C128.224 268.446 127.775 268.839 127.357 269.187L131.876 269.18L131.878 270.116L125.7 270.126ZM137.019 270.267C136.19 270.269 135.472 270.069 134.865 269.669C134.267 269.26 133.807 268.695 133.485 267.974C133.163 267.243 133.001 266.397 133 265.434C132.998 264.471 133.157 263.629 133.477 262.906C133.796 262.174 134.254 261.608 134.851 261.206C135.456 260.794 136.174 260.588 137.003 260.587C137.832 260.585 138.545 260.789 139.143 261.198C139.741 261.598 140.201 262.164 140.523 262.894C140.845 263.616 141.007 264.458 141.009 265.42C141.01 266.383 140.851 267.23 140.532 267.962C140.212 268.684 139.754 269.251 139.157 269.662C138.561 270.064 137.848 270.266 137.019 270.267ZM137.017 269.278C137.561 269.277 138.047 269.125 138.474 268.821C138.91 268.508 139.248 268.066 139.488 267.495C139.737 266.916 139.86 266.225 139.859 265.422C139.857 264.62 139.732 263.934 139.481 263.364C139.239 262.794 138.9 262.358 138.463 262.055C138.034 261.744 137.548 261.589 137.004 261.59C136.452 261.591 135.962 261.747 135.534 262.06C135.107 262.364 134.769 262.801 134.52 263.372C134.272 263.943 134.148 264.63 134.149 265.432C134.151 266.234 134.277 266.925 134.527 267.504C134.778 268.074 135.117 268.515 135.546 268.826C135.974 269.128 136.465 269.279 137.017 269.278Z" fill="#0D0D0D"/>
<path d="M177.8 270.04L177.798 269.251C178.43 268.751 179.027 268.246 179.588 267.737C180.157 267.219 180.66 266.71 181.096 266.21C181.541 265.71 181.888 265.219 182.136 264.737C182.394 264.256 182.523 263.792 182.522 263.346C182.521 263.016 182.463 262.709 182.346 262.424C182.239 262.139 182.06 261.912 181.811 261.743C181.561 261.565 181.222 261.476 180.794 261.477C180.384 261.478 180.041 261.572 179.765 261.76C179.489 261.938 179.28 262.179 179.138 262.483C179.004 262.786 178.938 263.112 178.939 263.459L177.856 263.461C177.855 262.846 177.983 262.32 178.241 261.883C178.498 261.436 178.85 261.097 179.295 260.865C179.741 260.632 180.244 260.515 180.806 260.514C181.635 260.513 182.312 260.748 182.839 261.22C183.375 261.682 183.643 262.377 183.645 263.304C183.646 263.857 183.509 264.405 183.233 264.95C182.958 265.485 182.607 266.007 182.18 266.516C181.753 267.016 181.294 267.484 180.805 267.922C180.324 268.36 179.875 268.753 179.456 269.101L183.976 269.093L183.977 270.029L177.8 270.04ZM186.521 270.025L186.508 261.922L184.997 262.259L184.996 261.484L186.88 260.665L187.642 260.663L187.658 270.023L186.521 270.025Z" fill="#0D0D0D"/>
<path d="M225.538 269.959L225.537 269.17C226.169 268.67 226.765 268.165 227.326 267.656C227.896 267.138 228.398 266.629 228.834 266.129C229.279 265.629 229.626 265.138 229.875 264.657C230.133 264.175 230.261 263.711 230.26 263.265C230.26 262.935 230.201 262.628 230.085 262.343C229.977 262.058 229.799 261.831 229.549 261.662C229.299 261.484 228.96 261.396 228.532 261.396C228.122 261.397 227.779 261.491 227.503 261.679C227.227 261.857 227.018 262.099 226.876 262.402C226.743 262.705 226.676 263.031 226.677 263.378L225.594 263.38C225.593 262.765 225.721 262.239 225.979 261.802C226.237 261.356 226.588 261.016 227.034 260.784C227.479 260.551 227.982 260.434 228.544 260.434C229.373 260.432 230.051 260.667 230.578 261.139C231.113 261.601 231.382 262.296 231.383 263.223C231.384 263.776 231.247 264.324 230.972 264.869C230.696 265.404 230.345 265.926 229.918 266.435C229.491 266.935 229.033 267.403 228.543 267.841C228.062 268.279 227.613 268.672 227.195 269.02L231.714 269.012L231.716 269.948L225.538 269.959ZM233.19 269.946L233.189 269.157C233.821 268.657 234.417 268.152 234.978 267.643C235.547 267.125 236.05 266.616 236.486 266.116C236.931 265.616 237.278 265.125 237.527 264.644C237.784 264.162 237.913 263.698 237.912 263.252C237.911 262.923 237.853 262.615 237.737 262.33C237.629 262.045 237.451 261.818 237.201 261.649C236.951 261.471 236.612 261.383 236.184 261.383C235.774 261.384 235.431 261.478 235.155 261.666C234.879 261.845 234.67 262.086 234.528 262.389C234.394 262.692 234.328 263.018 234.329 263.365L233.246 263.367C233.245 262.752 233.373 262.226 233.631 261.789C233.889 261.343 234.24 261.003 234.685 260.771C235.131 260.538 235.634 260.422 236.196 260.421C237.025 260.419 237.703 260.654 238.229 261.126C238.765 261.589 239.034 262.283 239.035 263.21C239.036 263.763 238.899 264.312 238.623 264.856C238.348 265.391 237.997 265.913 237.57 266.422C237.143 266.922 236.684 267.391 236.195 267.828C235.714 268.266 235.265 268.659 234.846 269.007L239.366 269L239.367 269.935L233.19 269.946Z" fill="#0D0D0D"/>
<path d="M274.981 269.875L274.979 269.086C275.611 268.586 276.208 268.081 276.768 267.572C277.338 267.054 277.841 266.545 278.277 266.045C278.722 265.545 279.068 265.054 279.317 264.573C279.575 264.091 279.703 263.627 279.703 263.181C279.702 262.852 279.644 262.544 279.527 262.259C279.42 261.974 279.241 261.747 278.991 261.578C278.741 261.4 278.403 261.312 277.975 261.312C277.565 261.313 277.222 261.407 276.946 261.595C276.67 261.774 276.46 262.015 276.318 262.318C276.185 262.621 276.119 262.947 276.119 263.294L275.036 263.296C275.035 262.681 275.164 262.155 275.422 261.718C275.679 261.272 276.031 260.932 276.476 260.7C276.921 260.467 277.425 260.351 277.986 260.35C278.815 260.348 279.493 260.583 280.02 261.055C280.556 261.518 280.824 262.212 280.826 263.139C280.827 263.692 280.689 264.241 280.414 264.785C280.139 265.32 279.787 265.842 279.36 266.351C278.933 266.851 278.475 267.32 277.986 267.757C277.505 268.195 277.055 268.588 276.637 268.936L281.156 268.929L281.158 269.865L274.981 269.875ZM285.695 270.017C285.097 270.018 284.558 269.912 284.076 269.699C283.594 269.477 283.206 269.148 282.911 268.712C282.625 268.275 282.473 267.732 282.454 267.081L283.59 267.079C283.6 267.614 283.788 268.077 284.154 268.469C284.52 268.852 285.033 269.042 285.693 269.041C286.353 269.04 286.847 268.857 287.176 268.491C287.514 268.125 287.683 267.683 287.682 267.166C287.681 266.729 287.574 266.373 287.359 266.097C287.154 265.821 286.873 265.616 286.516 265.483C286.168 265.35 285.785 265.284 285.366 265.285L284.67 265.286L284.669 264.336L285.364 264.335C285.97 264.334 286.442 264.195 286.781 263.918C287.128 263.641 287.301 263.253 287.3 262.754C287.3 262.335 287.161 261.992 286.884 261.725C286.616 261.449 286.215 261.312 285.68 261.313C285.163 261.314 284.749 261.47 284.437 261.783C284.126 262.087 283.953 262.47 283.918 262.934L282.781 262.936C282.807 262.427 282.94 261.977 283.18 261.584C283.429 261.192 283.767 260.888 284.195 260.674C284.622 260.45 285.117 260.338 285.678 260.337C286.284 260.336 286.788 260.442 287.19 260.655C287.6 260.868 287.908 261.153 288.114 261.509C288.328 261.866 288.436 262.258 288.437 262.685C288.437 263.158 288.309 263.59 288.051 263.983C287.793 264.367 287.406 264.626 286.889 264.761C287.442 264.876 287.901 265.138 288.268 265.547C288.634 265.957 288.817 266.496 288.819 267.164C288.819 267.681 288.7 268.158 288.46 268.595C288.229 269.024 287.882 269.367 287.419 269.627C286.956 269.886 286.381 270.016 285.695 270.017Z" fill="#0D0D0D"/>
<path d="M324.513 269.791L324.512 269.002C325.144 268.502 325.74 267.997 326.301 267.488C326.871 266.97 327.373 266.461 327.809 265.961C328.254 265.461 328.601 264.97 328.85 264.489C329.107 264.007 329.236 263.543 329.235 263.097C329.235 262.768 329.176 262.46 329.06 262.175C328.952 261.89 328.774 261.663 328.524 261.494C328.274 261.316 327.935 261.228 327.507 261.228C327.097 261.229 326.754 261.323 326.478 261.511C326.202 261.69 325.993 261.931 325.851 262.234C325.718 262.537 325.651 262.863 325.652 263.21L324.569 263.212C324.568 262.597 324.696 262.071 324.954 261.634C325.212 261.188 325.563 260.848 326.009 260.616C326.454 260.383 326.957 260.267 327.519 260.266C328.348 260.264 329.026 260.499 329.553 260.971C330.088 261.434 330.357 262.128 330.358 263.055C330.359 263.608 330.222 264.157 329.947 264.701C329.671 265.236 329.32 265.758 328.893 266.267C328.466 266.767 328.008 267.236 327.518 267.673C327.037 268.111 326.588 268.504 326.17 268.852L330.689 268.845L330.69 269.781L324.513 269.791ZM336.329 269.771L336.325 267.765L331.578 267.773L331.577 266.904L336.112 260.412L337.423 260.41L337.433 266.774L338.824 266.772L338.826 267.761L337.435 267.764L337.438 269.769L336.329 269.771ZM332.82 266.782L336.377 266.776L336.368 261.655L332.82 266.782Z" fill="#0D0D0D"/>
<path d="M27.1533 308.444L27.152 307.655C27.784 307.154 28.3804 306.65 28.9411 306.141C29.5108 305.623 30.0136 305.114 30.4495 304.614C30.8944 304.114 31.2412 303.623 31.49 303.141C31.7477 302.66 31.8761 302.196 31.8754 301.75C31.8748 301.42 31.8164 301.113 31.7 300.828C31.5926 300.543 31.4139 300.316 31.164 300.147C30.9142 299.969 30.5753 299.88 30.1474 299.881C29.7374 299.882 29.3943 299.976 29.1183 300.164C28.8423 300.342 28.6332 300.583 28.4911 300.887C28.3579 301.19 28.2916 301.515 28.2922 301.863L27.2091 301.865C27.2081 301.25 27.3365 300.724 27.5942 300.286C27.852 299.84 28.2035 299.501 28.6488 299.269C29.0941 299.036 29.5976 298.919 30.1592 298.918C30.9882 298.917 31.666 299.152 32.1927 299.624C32.7283 300.086 32.9969 300.781 32.9985 301.708C32.9994 302.261 32.8622 302.809 32.5867 303.353C32.3113 303.889 31.9601 304.411 31.5331 304.92C31.106 305.419 30.6478 305.888 30.1582 306.326C29.6776 306.763 29.2281 307.156 28.8097 307.505L33.3291 307.497L33.3307 308.433L27.1533 308.444ZM38.1347 308.586C37.4929 308.587 36.9355 308.472 36.4627 308.241C35.9899 308.01 35.6105 307.694 35.3246 307.293C35.0476 306.884 34.8774 306.42 34.8142 305.904L35.9106 305.902C36.0184 306.419 36.2687 306.837 36.6615 307.157C37.0542 307.469 37.5492 307.624 38.1464 307.623C38.5921 307.622 38.9753 307.519 39.2958 307.313C39.6164 307.099 39.861 306.813 40.0298 306.456C40.2075 306.1 40.2959 305.703 40.2952 305.266C40.294 304.571 40.097 304.009 39.704 303.582C39.3111 303.155 38.8027 302.942 38.1787 302.943C37.6617 302.944 37.2206 303.06 36.8555 303.293C36.4905 303.525 36.2235 303.829 36.0548 304.203L34.9851 304.205L35.7788 299.069L40.6859 299.061L40.6875 300.037L36.6495 300.044L36.1061 302.893C36.3196 302.634 36.6134 302.42 36.9875 302.25C37.3705 302.08 37.8072 301.994 38.2974 301.993C38.9125 301.992 39.4476 302.134 39.9027 302.419C40.3667 302.703 40.7283 303.09 40.9877 303.58C41.247 304.07 41.3772 304.627 41.3782 305.251C41.3792 305.848 41.2509 306.401 40.9932 306.909C40.7445 307.418 40.3753 307.824 39.8855 308.128C39.4047 308.432 38.821 308.584 38.1347 308.586Z" fill="#0D0D0D"/>
<path d="M76.5748 308.36L76.5735 307.571C77.2056 307.071 77.802 306.566 78.3627 306.057C78.9323 305.539 79.4351 305.03 79.8711 304.53C80.3159 304.03 80.6627 303.539 80.9115 303.058C81.1692 302.576 81.2977 302.112 81.2969 301.666C81.2964 301.336 81.2379 301.029 81.1216 300.744C81.0141 300.459 80.8355 300.232 80.5856 300.063C80.3357 299.885 79.9968 299.797 79.5689 299.797C79.1589 299.798 78.8159 299.892 78.5399 300.08C78.2638 300.259 78.0547 300.5 77.9126 300.803C77.7794 301.106 77.7131 301.432 77.7137 301.779L76.6307 301.781C76.6296 301.166 76.758 300.64 77.0158 300.203C77.2735 299.757 77.6251 299.417 78.0704 299.185C78.5157 298.952 79.0191 298.835 79.5807 298.835C80.4097 298.833 81.0876 299.068 81.6143 299.54C82.1499 300.002 82.4185 300.697 82.42 301.624C82.421 302.177 82.2837 302.725 82.0083 303.27C81.7329 303.805 81.3816 304.327 80.9546 304.836C80.5276 305.336 80.0693 305.804 79.5798 306.242C79.0991 306.68 78.6496 307.073 78.2313 307.421L82.7507 307.413L82.7522 308.349L76.5748 308.36ZM87.7434 308.501C87.0659 308.503 86.4952 308.379 86.0313 308.13C85.5673 307.872 85.1924 307.53 84.9064 307.102C84.6294 306.675 84.4235 306.198 84.2889 305.673C84.1633 305.138 84.0999 304.594 84.099 304.042C84.0973 303.008 84.2384 302.103 84.5223 301.327C84.8063 300.542 85.2153 299.93 85.7494 299.493C86.2924 299.046 86.9472 298.822 87.7138 298.821C88.3021 298.82 88.8059 298.935 89.2253 299.166C89.6446 299.397 89.975 299.708 90.2163 300.1C90.4665 300.483 90.6233 300.911 90.6864 301.383L89.6435 301.385C89.5446 300.877 89.3256 300.485 88.9864 300.209C88.6472 299.934 88.2191 299.796 87.7021 299.797C86.9978 299.798 86.4056 300.133 85.9254 300.803C85.4541 301.463 85.2018 302.498 85.1685 303.906C85.3817 303.487 85.7198 303.125 86.1828 302.821C86.6548 302.509 87.2205 302.352 87.8802 302.351C88.415 302.35 88.9144 302.474 89.3783 302.722C89.8512 302.971 90.2351 303.323 90.53 303.777C90.8249 304.222 90.9729 304.748 90.9739 305.354C90.9748 305.88 90.8464 306.384 90.5887 306.865C90.331 307.347 89.9573 307.74 89.4675 308.044C88.9867 308.348 88.412 308.5 87.7434 308.501ZM87.6615 307.512C88.0805 307.511 88.4547 307.422 88.7842 307.243C89.1137 307.064 89.3718 306.818 89.5585 306.506C89.7452 306.185 89.8381 305.819 89.8375 305.409C89.8364 304.776 89.6261 304.273 89.2065 303.899C88.7958 303.517 88.2785 303.326 87.6545 303.327C87.2355 303.328 86.8613 303.426 86.5318 303.623C86.2023 303.811 85.9398 304.065 85.7442 304.387C85.5576 304.708 85.4646 305.056 85.4652 305.43C85.4659 305.831 85.5601 306.192 85.7478 306.513C85.9444 306.824 86.2078 307.069 86.5379 307.247C86.868 307.424 87.2426 307.513 87.6615 307.512Z" fill="#0D0D0D"/>
<path d="M126.887 308.274L126.886 307.486C127.518 306.985 128.114 306.481 128.675 305.972C129.244 305.454 129.747 304.945 130.183 304.445C130.628 303.945 130.975 303.454 131.224 302.972C131.481 302.49 131.61 302.027 131.609 301.581C131.608 301.251 131.55 300.944 131.434 300.659C131.326 300.374 131.147 300.147 130.898 299.978C130.648 299.8 130.309 299.711 129.881 299.712C129.471 299.713 129.128 299.807 128.852 299.995C128.576 300.173 128.367 300.414 128.225 300.718C128.091 301.021 128.025 301.346 128.026 301.694L126.943 301.696C126.942 301.081 127.07 300.555 127.328 300.117C127.586 299.671 127.937 299.332 128.382 299.099C128.828 298.867 129.331 298.75 129.893 298.749C130.722 298.748 131.4 298.983 131.926 299.455C132.462 299.917 132.731 300.612 132.732 301.539C132.733 302.092 132.596 302.64 132.32 303.184C132.045 303.72 131.694 304.242 131.267 304.751C130.84 305.25 130.381 305.719 129.892 306.157C129.411 306.594 128.962 306.987 128.543 307.336L133.063 307.328L133.064 308.264L126.887 308.274ZM135.239 308.26L138.942 299.857L133.808 299.866L133.806 298.903L140.091 298.893L140.092 299.735L136.429 308.258L135.239 308.26Z" fill="#0D0D0D"/>
<path d="M175.918 308.193L175.917 307.404C176.549 306.904 177.145 306.4 177.706 305.89C178.275 305.373 178.778 304.864 179.214 304.364C179.659 303.864 180.006 303.373 180.255 302.891C180.512 302.409 180.641 301.946 180.64 301.5C180.64 301.17 180.581 300.863 180.465 300.578C180.357 300.293 180.179 300.066 179.929 299.897C179.679 299.719 179.34 299.63 178.912 299.631C178.502 299.632 178.159 299.726 177.883 299.913C177.607 300.092 177.398 300.333 177.256 300.636C177.123 300.94 177.056 301.265 177.057 301.613L175.974 301.615C175.973 301 176.101 300.473 176.359 300.036C176.617 299.59 176.968 299.251 177.413 299.018C177.859 298.786 178.362 298.669 178.924 298.668C179.753 298.667 180.431 298.902 180.957 299.373C181.493 299.836 181.762 300.531 181.763 301.458C181.764 302.011 181.627 302.559 181.351 303.103C181.076 303.639 180.725 304.161 180.298 304.669C179.871 305.169 179.412 305.638 178.923 306.076C178.442 306.513 177.993 306.906 177.574 307.255L182.094 307.247L182.095 308.183L175.918 308.193ZM186.584 308.336C185.969 308.337 185.416 308.226 184.925 308.004C184.435 307.773 184.046 307.458 183.76 307.057C183.483 306.647 183.344 306.175 183.343 305.64C183.343 305.07 183.507 304.557 183.836 304.102C184.174 303.647 184.619 303.343 185.171 303.19C184.663 303.022 184.27 302.751 183.993 302.377C183.716 302.003 183.577 301.593 183.577 301.147C183.576 300.693 183.695 300.278 183.936 299.903C184.176 299.52 184.518 299.216 184.964 298.992C185.409 298.769 185.944 298.656 186.568 298.655C187.191 298.654 187.727 298.765 188.173 298.987C188.619 299.209 188.962 299.511 189.204 299.894C189.445 300.268 189.566 300.683 189.567 301.137C189.568 301.574 189.43 301.984 189.154 302.368C188.879 302.743 188.487 303.015 187.979 303.186C188.532 303.336 188.974 303.639 189.304 304.093C189.644 304.547 189.814 305.059 189.815 305.629C189.816 306.164 189.674 306.637 189.39 307.048C189.114 307.449 188.731 307.766 188.241 307.999C187.751 308.222 187.199 308.335 186.584 308.336ZM186.574 302.787C187.145 302.786 187.595 302.643 187.924 302.357C188.262 302.062 188.431 301.678 188.43 301.206C188.429 300.68 188.264 300.284 187.934 300.017C187.603 299.75 187.149 299.617 186.569 299.618C185.99 299.619 185.535 299.753 185.206 300.021C184.886 300.289 184.726 300.686 184.727 301.212C184.727 301.685 184.893 302.068 185.223 302.361C185.554 302.646 186.004 302.788 186.574 302.787ZM186.582 307.346C187.286 307.345 187.812 307.184 188.159 306.862C188.515 306.532 188.693 306.099 188.692 305.565C188.691 304.958 188.498 304.5 188.114 304.188C187.731 303.877 187.218 303.722 186.576 303.723C185.934 303.724 185.422 303.881 185.039 304.193C184.656 304.506 184.465 304.965 184.467 305.572C184.467 306.106 184.642 306.538 184.99 306.868C185.347 307.188 185.878 307.348 186.582 307.346Z" fill="#0D0D0D"/>
<path d="M225.281 308.11L225.279 307.321C225.911 306.82 226.508 306.316 227.069 305.807C227.638 305.289 228.141 304.78 228.577 304.28C229.022 303.78 229.369 303.289 229.617 302.807C229.875 302.326 230.004 301.862 230.003 301.416C230.002 301.086 229.944 300.779 229.827 300.494C229.72 300.209 229.541 299.982 229.291 299.813C229.042 299.635 228.703 299.546 228.275 299.547C227.865 299.548 227.522 299.642 227.246 299.83C226.97 300.008 226.761 300.249 226.619 300.553C226.485 300.856 226.419 301.182 226.42 301.529L225.337 301.531C225.336 300.916 225.464 300.39 225.722 299.953C225.979 299.506 226.331 299.167 226.776 298.935C227.222 298.702 227.725 298.585 228.287 298.584C229.116 298.583 229.793 298.818 230.32 299.29C230.856 299.752 231.124 300.447 231.126 301.374C231.127 301.927 230.99 302.475 230.714 303.02C230.439 303.555 230.088 304.077 229.661 304.586C229.233 305.086 228.775 305.554 228.286 305.992C227.805 306.43 227.356 306.823 226.937 307.171L231.457 307.163L231.458 308.099L225.281 308.11ZM236.038 308.252C235.45 308.253 234.946 308.138 234.526 307.907C234.107 307.676 233.772 307.369 233.522 306.986C233.281 306.594 233.133 306.162 233.079 305.69L234.122 305.688C234.212 306.196 234.426 306.588 234.765 306.864C235.105 307.139 235.533 307.277 236.05 307.276C236.763 307.275 237.355 306.944 237.826 306.283C238.298 305.614 238.55 304.575 238.583 303.167C238.37 303.586 238.027 303.952 237.556 304.265C237.093 304.569 236.531 304.721 235.872 304.722C235.346 304.723 234.846 304.599 234.373 304.35C233.901 304.102 233.517 303.755 233.222 303.309C232.927 302.855 232.779 302.325 232.778 301.719C232.777 301.193 232.905 300.689 233.163 300.208C233.43 299.726 233.803 299.333 234.284 299.029C234.765 298.725 235.34 298.573 236.008 298.571C236.686 298.57 237.257 298.699 237.72 298.956C238.184 299.205 238.555 299.543 238.832 299.971C239.118 300.398 239.324 300.879 239.449 301.414C239.584 301.939 239.652 302.479 239.653 303.031C239.654 304.065 239.513 304.975 239.229 305.76C238.945 306.536 238.532 307.147 237.989 307.594C237.455 308.031 236.805 308.251 236.038 308.252ZM236.097 303.746C236.516 303.745 236.89 303.651 237.22 303.463C237.549 303.267 237.812 303.008 238.008 302.686C238.203 302.365 238.301 302.017 238.3 301.643C238.299 301.242 238.201 300.885 238.004 300.574C237.807 300.253 237.544 300.004 237.214 299.826C236.884 299.649 236.509 299.56 236.09 299.561C235.671 299.561 235.297 299.651 234.968 299.83C234.638 300.009 234.38 300.259 234.193 300.58C234.007 300.892 233.914 301.254 233.914 301.664C233.915 302.297 234.121 302.804 234.532 303.187C234.951 303.561 235.473 303.747 236.097 303.746Z" fill="#0D0D0D"/>
<path d="M277.304 308.184C276.706 308.185 276.167 308.079 275.685 307.866C275.203 307.644 274.815 307.315 274.52 306.878C274.234 306.442 274.082 305.898 274.063 305.248L275.199 305.246C275.209 305.781 275.397 306.244 275.763 306.635C276.129 307.018 276.642 307.209 277.302 307.208C277.962 307.207 278.456 307.023 278.785 306.657C279.123 306.291 279.292 305.85 279.291 305.333C279.29 304.896 279.183 304.539 278.968 304.263C278.763 303.987 278.482 303.783 278.125 303.65C277.777 303.517 277.394 303.45 276.975 303.451L276.279 303.452L276.278 302.503L276.973 302.502C277.579 302.501 278.051 302.362 278.39 302.085C278.737 301.808 278.91 301.42 278.909 300.921C278.909 300.502 278.77 300.159 278.493 299.892C278.225 299.616 277.824 299.479 277.289 299.479C276.772 299.48 276.358 299.637 276.046 299.949C275.735 300.253 275.562 300.637 275.527 301.1L274.39 301.102C274.416 300.594 274.549 300.144 274.789 299.751C275.038 299.358 275.376 299.055 275.804 298.84C276.231 298.617 276.726 298.504 277.287 298.503C277.893 298.502 278.397 298.608 278.799 298.822C279.209 299.035 279.517 299.32 279.723 299.676C279.937 300.032 280.045 300.424 280.046 300.852C280.046 301.324 279.918 301.757 279.66 302.15C279.402 302.533 279.015 302.793 278.498 302.927C279.051 303.042 279.51 303.304 279.877 303.714C280.243 304.123 280.426 304.662 280.428 305.331C280.428 305.848 280.309 306.325 280.069 306.762C279.838 307.19 279.491 307.534 279.028 307.793C278.565 308.053 277.99 308.183 277.304 308.184ZM285.9 308.169C285.071 308.171 284.353 307.971 283.746 307.571C283.148 307.162 282.688 306.597 282.366 305.876C282.044 305.145 281.882 304.299 281.88 303.336C281.879 302.373 282.038 301.531 282.357 300.808C282.677 300.077 283.135 299.51 283.732 299.108C284.337 298.697 285.054 298.49 285.883 298.489C286.712 298.488 287.426 298.691 288.024 299.1C288.622 299.5 289.082 300.066 289.404 300.796C289.726 301.518 289.888 302.36 289.889 303.322C289.891 304.285 289.732 305.132 289.412 305.864C289.093 306.586 288.634 307.153 288.038 307.564C287.441 307.966 286.729 308.168 285.9 308.169ZM285.898 307.18C286.442 307.179 286.927 307.027 287.355 306.723C287.791 306.41 288.129 305.968 288.369 305.398C288.617 304.818 288.741 304.127 288.739 303.324C288.738 302.522 288.612 301.836 288.362 301.266C288.12 300.696 287.781 300.26 287.343 299.957C286.915 299.646 286.429 299.491 285.885 299.492C285.332 299.493 284.842 299.649 284.415 299.962C283.988 300.266 283.65 300.703 283.401 301.274C283.152 301.845 283.029 302.532 283.03 303.334C283.031 304.136 283.157 304.827 283.408 305.406C283.659 305.976 283.998 306.417 284.426 306.728C284.855 307.03 285.345 307.181 285.898 307.18Z" fill="#0D0D0D"/>
<path d="M15.1731 27.2035C15.171 25.9874 15.4494 24.896 16.0081 23.9292C16.5788 22.9625 17.3466 22.2101 18.3115 21.6719C19.2882 21.1218 20.3549 20.8458 21.5114 20.8439C22.8349 20.8416 24.0099 21.1675 25.0363 21.8216C26.0747 22.4637 26.8274 23.3805 27.2944 24.572L24.8442 24.5761C24.5212 23.9209 24.0733 23.4328 23.5004 23.1119C22.9276 22.7909 22.2656 22.6311 21.5144 22.6323C20.6917 22.6337 19.9588 22.8197 19.3156 23.1904C18.6723 23.5611 18.1665 24.0925 17.798 24.7847C17.4415 25.4768 17.264 26.2819 17.2656 27.2C17.2671 28.1181 17.4473 28.9226 17.8062 29.6135C18.1769 30.3045 18.6846 30.8401 19.329 31.2206C19.9735 31.5891 20.7071 31.7727 21.5298 31.7713C22.2809 31.7701 22.9424 31.608 23.5142 31.2851C24.0859 30.9622 24.5322 30.4726 24.853 29.8163L27.3032 29.8122C26.8402 31.0053 26.0906 31.9246 25.0544 32.5702C24.0301 33.2158 22.8562 33.5397 21.5327 33.5419C20.3643 33.5439 19.2967 33.2774 18.3301 32.7425C17.3634 32.1956 16.5931 31.4398 16.0191 30.475C15.4571 29.5102 15.1751 28.4197 15.1731 27.2035ZM29.1866 28.4498C29.185 27.4602 29.3862 26.5835 29.7903 25.8198C30.2063 25.056 30.7657 24.4649 31.4685 24.0464C32.1831 23.6159 32.9697 23.4 33.8282 23.3986C34.6032 23.3973 35.2771 23.5511 35.8499 23.8602C36.4346 24.1573 36.9003 24.5321 37.2468 24.9846L37.2444 23.5538L39.3011 23.5503L39.3177 33.4047L37.2609 33.4082L37.2585 31.9417C36.9135 32.4072 36.4432 32.7955 35.8475 33.1065C35.2519 33.4175 34.5725 33.5737 33.8095 33.5749C32.9629 33.5764 32.1876 33.363 31.4834 32.935C30.7792 32.495 30.2178 31.8879 29.7992 31.1136C29.3925 30.3274 29.1883 29.4394 29.1866 28.4498ZM37.2526 28.472C37.2515 27.7924 37.1074 27.2025 36.8204 26.7022C36.5454 26.2019 36.1811 25.821 35.7276 25.5594C35.274 25.2979 34.785 25.1675 34.2604 25.1684C33.7357 25.1693 33.2471 25.3013 32.7945 25.5643C32.3418 25.8155 31.9728 26.1917 31.6875 26.6929C31.4141 27.1822 31.278 27.7667 31.2791 28.4463C31.2803 29.1259 31.4184 29.7218 31.6935 30.2341C31.9805 30.7463 32.3508 31.1391 32.8043 31.4126C33.2697 31.6741 33.7588 31.8044 34.2715 31.8036C34.7961 31.8027 35.2847 31.6707 35.7374 31.4077C36.19 31.1446 36.553 30.7625 36.8264 30.2612C37.1117 29.7481 37.2538 29.1517 37.2526 28.472ZM44.1911 20.1619L44.2133 33.3965L42.1744 33.3999L42.1522 20.1654L44.1911 20.1619ZM56.092 28.2079C56.0926 28.5775 56.0693 28.9114 56.0221 29.2096L48.4927 29.2222C48.5536 30.009 48.8468 30.6405 49.3722 31.1165C49.8976 31.5925 50.5419 31.8299 51.305 31.8286C52.4019 31.8268 53.1761 31.3665 53.6276 30.4476L55.8274 30.4439C55.5309 31.3506 54.9896 32.0967 54.2037 32.6822C53.4297 33.2558 52.4644 33.5436 51.3078 33.5456C50.3659 33.5471 49.519 33.3399 48.7672 32.9239C48.0272 32.4959 47.442 31.9007 47.0115 31.1384C46.5929 30.3641 46.3827 29.4702 46.381 28.4567C46.3793 27.4433 46.5805 26.5547 46.9846 25.7909C47.4006 25.0152 47.9779 24.4181 48.7164 23.9995C49.4669 23.581 50.325 23.3709 51.2908 23.3692C52.2208 23.3677 53.0497 23.569 53.7777 23.9731C54.5057 24.3773 55.073 24.9487 55.4797 25.6872C55.8863 26.4138 56.0904 27.2541 56.092 28.2079ZM53.9626 27.5676C53.9494 26.8165 53.6802 26.2149 53.1548 25.7627C52.6294 25.3105 51.9792 25.085 51.2042 25.0863C50.5008 25.0875 49.899 25.315 49.399 25.769C48.899 26.211 48.6019 26.8136 48.5078 27.5768L53.9626 27.5676ZM63.241 23.3492C64.016 23.3479 64.7078 23.5077 65.3164 23.8286C65.937 24.1495 66.4206 24.6256 66.7675 25.2569C67.1143 25.8883 67.2885 26.651 67.29 27.5453L67.2997 33.3578L65.2788 33.3612L65.2695 27.8527C65.268 26.9704 65.0463 26.2971 64.6044 25.8329C64.1624 25.3567 63.5599 25.1192 62.7969 25.1205C62.0338 25.1218 61.4261 25.3613 60.9738 25.839C60.5335 26.3047 60.314 26.9787 60.3155 27.861L60.3247 33.3695L58.2859 33.3729L58.2694 23.5185L60.3082 23.5151L60.3101 24.6418C60.6433 24.2359 61.066 23.9192 61.5783 23.6918C62.1025 23.4644 62.6568 23.3502 63.241 23.3492ZM69.3913 28.3823C69.3896 27.3927 69.5908 26.516 69.9949 25.7523C70.411 24.9885 70.9704 24.3974 71.6731 23.9789C72.3878 23.5484 73.1803 23.3325 74.0507 23.331C74.6945 23.33 75.3267 23.472 75.9472 23.7571C76.5795 24.0303 77.0809 24.399 77.4513 24.8634L77.4433 20.1061L79.5001 20.1027L79.5223 33.3372L77.4656 33.3407L77.4631 31.8563C77.13 32.3338 76.6657 32.728 76.0701 33.039C75.4863 33.35 74.813 33.5061 74.0499 33.5074C73.1914 33.5088 72.4041 33.2955 71.688 32.8675C70.9838 32.4275 70.4224 31.8204 70.0038 31.0461C69.5971 30.2599 69.3929 29.3719 69.3913 28.3823ZM77.4573 28.4046C77.4561 27.7249 77.3121 27.135 77.0251 26.6347C76.75 26.1344 76.3857 25.7535 75.9322 25.4919C75.4787 25.2304 74.9896 25.1 74.465 25.1009C73.9404 25.1018 73.4518 25.2338 72.9991 25.4968C72.5465 25.748 72.1775 26.1242 71.8922 26.6254C71.6188 27.1147 71.4826 27.6992 71.4838 28.3788C71.4849 29.0584 71.623 29.6543 71.8981 30.1666C72.1851 30.6788 72.5554 31.0716 73.0089 31.3451C73.4744 31.6066 73.9634 31.737 74.4761 31.7361C75.0008 31.7352 75.4894 31.6032 75.942 31.3402C76.3946 31.0771 76.7577 30.695 77.0311 30.1937C77.3163 29.6806 77.4584 29.0842 77.4573 28.4046ZM81.6911 28.3617C81.6894 27.3721 81.8907 26.4954 82.2948 25.7316C82.7108 24.9678 83.2702 24.3767 83.9729 23.9582C84.6876 23.5278 85.4742 23.3119 86.3326 23.3104C87.1076 23.3091 87.7815 23.463 88.3544 23.772C88.9391 24.0691 89.4047 24.4439 89.7513 24.8964L89.7489 23.4656L91.8056 23.4622L91.8221 33.3166L89.7654 33.32L89.7629 31.8535C89.4179 32.3191 88.9476 32.7074 88.352 33.0184C87.7564 33.3294 87.077 33.4855 86.3139 33.4868C85.4674 33.4882 84.6921 33.2749 83.9879 32.8469C83.2837 32.4069 82.7223 31.7998 82.3037 31.0255C81.897 30.2392 81.6928 29.3513 81.6911 28.3617ZM89.7571 28.3839C89.756 27.7043 89.6119 27.1143 89.3249 26.6141C89.0498 26.1137 88.6855 25.7328 88.232 25.4713C87.7785 25.2097 87.2894 25.0794 86.7648 25.0803C86.2402 25.0812 85.7516 25.2131 85.299 25.4762C84.8463 25.7273 84.4773 26.1035 84.192 26.6048C83.9186 27.0941 83.7825 27.6785 83.7836 28.3582C83.7847 29.0378 83.9229 29.6337 84.198 30.1459C84.485 30.6581 84.8552 31.051 85.3088 31.3244C85.7742 31.586 86.2633 31.7163 86.776 31.7154C87.3006 31.7146 87.7892 31.5826 88.2418 31.3195C88.6945 31.0565 89.0575 30.6743 89.3309 30.1731C89.6162 29.6599 89.7583 29.0635 89.7571 28.3839ZM96.7036 24.8847C97.0008 24.3835 97.3936 23.9953 97.882 23.7203C98.3823 23.4333 98.9723 23.2892 99.6519 23.2881L99.6554 25.3984L99.1368 25.3993C98.3379 25.4007 97.7302 25.6044 97.3136 26.0104C96.9089 26.4165 96.7073 27.1203 96.709 28.1218L96.7177 33.3084L94.6789 33.3118L94.6624 23.4574L96.7012 23.454L96.7036 24.8847Z" fill="black"/>
<path d="M335.15 24.8902C335.46 24.5769 335.966 24.5751 336.278 24.8863L338.681 27.2816C339.062 27.6614 339.679 27.6603 340.059 27.2793L342.454 24.876C342.765 24.5637 343.271 24.5637 343.582 24.8761C343.892 25.1869 343.892 25.6895 343.582 26.0003L340.063 29.5317C339.683 29.9127 339.066 29.9137 338.685 29.534L335.154 26.0144C334.843 25.7047 334.841 25.2021 335.15 24.8902Z" fill="#5F647E"/>
</svg>
