<svg width="64" height="64" viewBox="0 0 64 64" fill="none" xmlns="http://www.w3.org/2000/svg">
<path d="M60 13H4C3.20435 13 2.44129 13.3161 1.87868 13.8787C1.31607 14.4413 1 15.2044 1 16V48C1 48.7957 1.31607 49.5587 1.87868 50.1213C2.44129 50.6839 3.20435 51 4 51H60C60.7957 51 61.5587 50.6839 62.1213 50.1213C62.6839 49.5587 63 48.7957 63 48V16C63 15.2044 62.6839 14.4413 62.1213 13.8787C61.5587 13.3161 60.7957 13 60 13ZM45.3025 45H18.6975C18.1039 42.1206 16.6797 39.4781 14.6008 37.3992C12.5219 35.3203 9.87945 33.8961 7 33.3025V30.6975C9.87945 30.1039 12.5219 28.6797 14.6008 26.6008C16.6797 24.5219 18.1039 21.8794 18.6975 19H45.3025C45.8961 21.8794 47.3203 24.5219 49.3992 26.6008C51.4781 28.6797 54.1206 30.1039 57 30.6975V33.3025C54.1206 33.8961 51.4781 35.3203 49.3992 37.3992C47.3203 39.4781 45.8961 42.1206 45.3025 45ZM57 24.485C55.7366 24.034 54.5892 23.308 53.6406 22.3594C52.692 21.4108 51.966 20.2634 51.515 19H57V24.485ZM12.485 19C12.034 20.2634 11.308 21.4108 10.3594 22.3594C9.41082 23.308 8.26339 24.034 7 24.485V19H12.485ZM7 39.515C8.26339 39.966 9.41082 40.692 10.3594 41.6406C11.308 42.5892 12.034 43.7366 12.485 45H7V39.515ZM51.515 45C51.966 43.7366 52.692 42.5892 53.6406 41.6406C54.5892 40.692 55.7366 39.966 57 39.515V45H51.515ZM32 22C30.0222 22 28.0888 22.5865 26.4443 23.6853C24.7998 24.7841 23.5181 26.3459 22.7612 28.1732C22.0043 30.0004 21.8063 32.0111 22.1921 33.9509C22.578 35.8907 23.5304 37.6725 24.9289 39.0711C26.3275 40.4696 28.1093 41.422 30.0491 41.8079C31.9889 42.1937 33.9996 41.9957 35.8268 41.2388C37.6541 40.4819 39.2159 39.2002 40.3147 37.5557C41.4135 35.9112 42 33.9778 42 32C42 29.3478 40.9464 26.8043 39.0711 24.9289C37.1957 23.0536 34.6522 22 32 22ZM32 36C31.2089 36 30.4355 35.7654 29.7777 35.3259C29.1199 34.8864 28.6072 34.2616 28.3045 33.5307C28.0017 32.7998 27.9225 31.9956 28.0769 31.2196C28.2312 30.4437 28.6122 29.731 29.1716 29.1716C29.731 28.6122 30.4437 28.2312 31.2196 28.0769C31.9956 27.9225 32.7998 28.0017 33.5307 28.3045C34.2616 28.6072 34.8864 29.1199 35.3259 29.7777C35.7654 30.4355 36 31.2089 36 32C36 33.0609 35.5786 34.0783 34.8284 34.8284C34.0783 35.5786 33.0609 36 32 36Z" fill="#09299A"/>
</svg>
