<svg width="20" height="20" viewBox="0 0 20 20" fill="none" xmlns="http://www.w3.org/2000/svg">
<path d="M4.16927 9.99996C4.16927 10.925 3.4276 11.6666 2.5026 11.6666C2.17297 11.6666 1.85074 11.5689 1.57665 11.3857C1.30257 11.2026 1.08895 10.9423 0.962806 10.6378C0.83666 10.3332 0.803654 9.99811 0.867963 9.67481C0.932271 9.35151 1.09101 9.05454 1.32409 8.82145C1.55718 8.58836 1.85415 8.42963 2.17745 8.36532C2.50076 8.30101 2.83587 8.33401 3.14041 8.46016C3.44495 8.58631 3.70525 8.79993 3.88839 9.07401C4.07152 9.34809 4.16927 9.67032 4.16927 9.99996ZM3.33594 1.66663V6.66663H1.66927V1.66663H3.33594ZM1.66927 18.3333V13.3333H3.33594V18.3333H1.66927ZM20.0026 4.99996V15C20.0026 15.925 19.2609 16.6666 18.3359 16.6666H8.33594C7.89391 16.6666 7.46999 16.491 7.15743 16.1785C6.84487 15.8659 6.66927 15.442 6.66927 15V11.6666L5.0026 9.99996L6.66927 8.33329V4.99996C6.66927 4.55793 6.84487 4.13401 7.15743 3.82145C7.46999 3.50889 7.89391 3.33329 8.33594 3.33329H18.3359C19.2609 3.33329 20.0026 4.07496 20.0026 4.99996ZM18.3359 4.99996H8.33594V9.02496L7.36094 9.99996L8.33594 10.975V15H18.3359V4.99996ZM10.0026 7.49996H16.6693V9.16663H10.0026V7.49996ZM10.0026 10.8333H15.0026V12.5H10.0026V10.8333Z" fill="#AAB7C6"/>
</svg>
