<svg width="70" height="64" viewBox="0 0 70 64" fill="none" xmlns="http://www.w3.org/2000/svg">
<path d="M50.3125 48C49.7323 48 49.1759 48.281 48.7657 48.781C48.3555 49.2811 48.125 49.9594 48.125 50.6667C48.125 51.3739 48.3555 52.0522 48.7657 52.5523C49.1759 53.0524 49.7323 53.3333 50.3125 53.3333H59.0625C59.6427 53.3333 60.1991 53.0524 60.6093 52.5523C61.0195 52.0522 61.25 51.3739 61.25 50.6667C61.25 49.9594 61.0195 49.2811 60.6093 48.781C60.1991 48.281 59.6427 48 59.0625 48H50.3125ZM0 14.6667C0 10.7768 1.26757 7.0463 3.52387 4.29577C5.78017 1.54523 8.84036 0 12.0312 0H57.9688C61.1596 0 64.2198 1.54523 66.4761 4.29577C68.7324 7.0463 70 10.7768 70 14.6667V49.3333C70 53.2232 68.7324 56.9537 66.4761 59.7042C64.2198 62.4548 61.1596 64 57.9688 64H12.0312C8.84036 64 5.78017 62.4548 3.52387 59.7042C1.26757 56.9537 0 53.2232 0 49.3333V14.6667ZM12.0312 5.33333C10.0007 5.33333 8.05329 6.31666 6.61746 8.067C5.18164 9.81734 4.375 12.1913 4.375 14.6667V21.3333H65.625V14.6667C65.625 12.1913 64.8184 9.81734 63.3825 8.067C61.9467 6.31666 59.9993 5.33333 57.9688 5.33333H12.0312ZM65.625 26.6667H4.375V49.3333C4.375 54.4853 7.805 58.6667 12.0312 58.6667H57.9688C59.9993 58.6667 61.9467 57.6833 63.3825 55.933C64.8184 54.1827 65.625 51.8087 65.625 49.3333V26.6667Z" fill="#0A7D08"/>
</svg>
