<svg width="32" height="32" viewBox="0 0 32 32" fill="none" xmlns="http://www.w3.org/2000/svg">
<g clip-path="url(#clip0_724_6852)">
<circle cx="16.0039" cy="16" r="15.8476" fill="#DDF1E6"/>
<path d="M15.9995 2.1333C13.2569 2.1333 10.5759 2.94657 8.29558 4.47026C6.01522 5.99394 4.23789 8.15962 3.18836 10.6934C2.13882 13.2272 1.86421 16.0153 2.39926 18.7052C2.93431 21.3951 4.25498 23.8659 6.19427 25.8052C8.13356 27.7445 10.6044 29.0651 13.2942 29.6002C15.9841 30.1352 18.7722 29.8606 21.306 28.8111C23.8398 27.7616 26.0055 25.9842 27.5292 23.7039C29.0529 21.4235 29.8662 18.7425 29.8662 16C29.8662 12.3223 28.4052 8.79526 25.8047 6.19475C23.2042 3.59425 19.6772 2.1333 15.9995 2.1333ZM23.9233 24.834V24.2318C23.9508 22.8812 23.4475 21.5737 22.5215 20.5901C21.5956 19.6065 20.3207 19.0253 18.9709 18.9714H13.0281C11.6794 19.0256 10.4059 19.607 9.48154 20.5906C8.55721 21.5742 8.05594 22.8814 8.08558 24.2308C8.08558 24.2417 8.07568 24.2526 8.07568 24.2635V24.8429C6.27886 23.239 5.01148 21.1273 4.44129 18.7872C3.8711 16.4472 4.02498 13.9891 4.88257 11.7384C5.74017 9.48773 7.26103 7.55055 9.24386 6.18327C11.2267 4.81599 13.578 4.0831 15.9865 4.08159C18.395 4.08009 20.7473 4.81004 22.7318 6.17484C24.7163 7.53964 26.2396 9.47492 27.1 11.7245C27.9604 13.9741 28.1174 16.432 27.5501 18.7728C26.9828 21.1136 25.7181 23.2269 23.9233 24.833V24.834Z" fill="#13B859"/>
<path d="M15.9993 7.08569C15.0198 7.08569 14.0623 7.37615 13.2479 7.92032C12.4334 8.46449 11.7987 9.23795 11.4239 10.1429C11.049 11.0478 10.9509 12.0436 11.142 13.0042C11.3331 13.9649 11.8048 14.8473 12.4974 15.5399C13.19 16.2325 14.0724 16.7042 15.0331 16.8953C15.9938 17.0864 16.9895 16.9883 17.8945 16.6135C18.7994 16.2386 19.5728 15.6039 20.117 14.7895C20.6612 13.9751 20.9516 13.0176 20.9516 12.0381C20.9516 10.7246 20.4299 9.46496 19.5011 8.53621C18.5724 7.60746 17.3127 7.08569 15.9993 7.08569Z" fill="#13B859"/>
</g>
<defs>
<clipPath id="clip0_724_6852">
<rect width="32" height="32" fill="white"/>
</clipPath>
</defs>
</svg>
