<svg width="18" height="18" viewBox="0 0 18 18" fill="none" xmlns="http://www.w3.org/2000/svg">
<path d="M10.8 9.00002H9.9V8.10002C9.9 7.86133 9.80518 7.63241 9.6364 7.46362C9.46761 7.29484 9.23869 7.20002 9 7.20002C8.7613 7.20002 8.53239 7.29484 8.3636 7.46362C8.19482 7.63241 8.1 7.86133 8.1 8.10002V9.00002H7.2C6.96131 9.00002 6.73239 9.09484 6.5636 9.26362C6.39482 9.43241 6.3 9.66133 6.3 9.90002C6.3 10.1387 6.39482 10.3676 6.5636 10.5364C6.73239 10.7052 6.96131 10.8 7.2 10.8H8.1V11.7C8.1 11.9387 8.19482 12.1676 8.3636 12.3364C8.53239 12.5052 8.7613 12.6 9 12.6C9.23869 12.6 9.46761 12.5052 9.6364 12.3364C9.80518 12.1676 9.9 11.9387 9.9 11.7V10.8H10.8C11.0387 10.8 11.2676 10.7052 11.4364 10.5364C11.6052 10.3676 11.7 10.1387 11.7 9.90002C11.7 9.66133 11.6052 9.43241 11.4364 9.26362C11.2676 9.09484 11.0387 9.00002 10.8 9.00002ZM15.3 2.70002H9.648L9.36 1.80002C9.1733 1.27193 8.82697 0.814973 8.36901 0.492465C7.91105 0.169957 7.36412 -0.00213921 6.804 2.00732e-05H2.7C1.98392 2.00732e-05 1.29716 0.284484 0.790812 0.790832C0.284464 1.29718 0 1.98394 0 2.70002V14.4C0 15.1161 0.284464 15.8029 0.790812 16.3092C1.29716 16.8156 1.98392 17.1 2.7 17.1H15.3C16.0161 17.1 16.7028 16.8156 17.2092 16.3092C17.7155 15.8029 18 15.1161 18 14.4V5.40002C18 4.68394 17.7155 3.99718 17.2092 3.49083C16.7028 2.98448 16.0161 2.70002 15.3 2.70002ZM16.2 14.4C16.2 14.6387 16.1052 14.8676 15.9364 15.0364C15.7676 15.2052 15.5387 15.3 15.3 15.3H2.7C2.46131 15.3 2.23239 15.2052 2.0636 15.0364C1.89482 14.8676 1.8 14.6387 1.8 14.4V2.70002C1.8 2.46133 1.89482 2.23241 2.0636 2.06362C2.23239 1.89484 2.46131 1.80002 2.7 1.80002H6.804C6.99268 1.79953 7.17674 1.85836 7.33017 1.96818C7.48359 2.078 7.59862 2.23326 7.659 2.41202L8.145 3.88802C8.20538 4.06678 8.32041 4.22204 8.47383 4.33186C8.62726 4.44168 8.81132 4.50051 9 4.50002H15.3C15.5387 4.50002 15.7676 4.59484 15.9364 4.76362C16.1052 4.93241 16.2 5.16133 16.2 5.40002V14.4Z" fill="#AAB7C6"/>
</svg>
