<svg width="64" height="64" viewBox="0 0 64 64" fill="none" xmlns="http://www.w3.org/2000/svg">
<path d="M32.0003 45.3333C30.5858 45.3333 29.2293 44.7714 28.2291 43.7712C27.2289 42.771 26.667 41.4144 26.667 40C26.667 37.04 29.0403 34.6666 32.0003 34.6666C33.4148 34.6666 34.7714 35.2285 35.7716 36.2287C36.7718 37.2289 37.3337 38.5855 37.3337 40C37.3337 41.4144 36.7718 42.771 35.7716 43.7712C34.7714 44.7714 33.4148 45.3333 32.0003 45.3333ZM48.0003 53.3333V26.6666H16.0003V53.3333H48.0003ZM48.0003 21.3333C49.4148 21.3333 50.7714 21.8952 51.7716 22.8954C52.7718 23.8956 53.3337 25.2521 53.3337 26.6666V53.3333C53.3337 54.7478 52.7718 56.1043 51.7716 57.1045C50.7714 58.1047 49.4148 58.6666 48.0003 58.6666H16.0003C14.5858 58.6666 13.2293 58.1047 12.2291 57.1045C11.2289 56.1043 10.667 54.7478 10.667 53.3333V26.6666C10.667 23.7066 13.0403 21.3333 16.0003 21.3333H18.667V16C18.667 12.4637 20.0718 9.07235 22.5722 6.57187C25.0727 4.07138 28.4641 2.66663 32.0003 2.66663C33.7513 2.66663 35.4851 3.0115 37.1028 3.68157C38.7204 4.35163 40.1903 5.33375 41.4284 6.57187C42.6665 7.80998 43.6487 9.27984 44.3187 10.8975C44.9888 12.5152 45.3337 14.249 45.3337 16V21.3333H48.0003ZM32.0003 7.99996C29.8786 7.99996 27.8438 8.84281 26.3435 10.3431C24.8432 11.8434 24.0003 13.8782 24.0003 16V21.3333H40.0003V16C40.0003 13.8782 39.1575 11.8434 37.6572 10.3431C36.1569 8.84281 34.1221 7.99996 32.0003 7.99996Z" fill="#0A7D08"/>
</svg>
