<svg width="79" height="58" viewBox="0 0 79 58" fill="none" xmlns="http://www.w3.org/2000/svg">
<path d="M20.3672 15.4844C20.3359 15.3906 20.4297 15.1562 20.6484 14.7812C20.8672 14.375 21.1016 13.8906 21.3516 13.3281C21.6328 12.7344 21.8984 12.0781 22.1484 11.3594C22.4297 10.6094 22.6172 9.84375 22.7109 9.0625C22.8359 8.28125 22.8359 7.5 22.7109 6.71875C22.5859 5.9375 22.2578 5.1875 21.7266 4.46875C21.4141 4.09375 20.9453 3.89062 20.3203 3.85938C19.7266 3.79687 19.0391 3.89062 18.2578 4.14062C17.5078 4.35937 16.7109 4.71875 15.8672 5.21875C15.0547 5.6875 14.3047 6.25 13.6172 6.90625C12.9297 7.53125 12.3359 8.23438 11.8359 9.01562C11.3672 9.79688 11.1016 10.5938 11.0391 11.4062C10.9766 12.0625 10.9922 12.6719 11.0859 13.2344C11.2109 13.7969 11.3672 14.3125 11.5547 14.7812C11.7422 15.25 11.9453 15.6875 12.1641 16.0938C12.3828 16.5 12.5859 16.8594 12.7734 17.1719C13.0234 17.6094 13.4141 18.0938 13.9453 18.625C14.4766 19.1562 15.0547 19.7656 15.6797 20.4531C16.3047 21.1094 16.9297 21.8594 17.5547 22.7031C18.1797 23.5469 18.7266 24.5 19.1953 25.5625C19.6641 26.625 19.9922 27.8125 20.1797 29.125C20.3672 30.4375 20.3516 31.8906 20.1328 33.4844C19.7891 35.7969 19.2422 37.7188 18.4922 39.25C17.7422 40.8125 16.9141 42.0625 16.0078 43C15.1328 43.9375 14.2422 44.6094 13.3359 45.0156C12.4297 45.4531 11.6797 45.7344 11.0859 45.8594C10.6172 45.9531 10.0547 46.0312 9.39844 46.0938C8.77344 46.1875 8.10156 46.1719 7.38281 46.0469C6.69531 45.9531 5.99219 45.7344 5.27344 45.3906C4.55469 45.0781 3.91406 44.5781 3.35156 43.8906C2.69531 43.1094 2.17969 42.2656 1.80469 41.3594C1.46094 40.5781 1.21094 39.6719 1.05469 38.6406C0.867188 37.6406 0.945312 36.5938 1.28906 35.5C1.53906 35.2188 1.80469 34.9688 2.08594 34.75C2.36719 34.5312 2.64844 34.3438 2.92969 34.1875C3.24219 34 3.57031 33.8281 3.91406 33.6719C4.32031 33.5469 4.72656 33.4375 5.13281 33.3438C5.47656 33.2812 5.83594 33.25 6.21094 33.25C6.61719 33.2188 6.99219 33.2656 7.33594 33.3906C6.86719 33.9219 6.53906 34.4219 6.35156 34.8906C6.22656 35.1406 6.13281 35.3594 6.07031 35.5469C5.94531 36.1406 5.89844 36.8438 5.92969 37.6562C5.99219 38.5 6.16406 39.2969 6.44531 40.0469C6.75781 40.8281 7.19531 41.4844 7.75781 42.0156C8.32031 42.5781 9.07031 42.875 10.0078 42.9062C12.2891 42.9688 14.2266 41.1875 15.8203 37.5625C16.3516 36.4375 16.6172 35.2969 16.6172 34.1406C16.6484 32.9844 16.5078 31.875 16.1953 30.8125C15.9141 29.75 15.5234 28.7656 15.0234 27.8594C14.5547 26.9219 14.0703 26.125 13.5703 25.4688C13.0703 24.8125 12.4609 24.1094 11.7422 23.3594C11.0547 22.5781 10.3672 21.7344 9.67969 20.8281C8.99219 19.9219 8.36719 18.9375 7.80469 17.875C7.27344 16.8125 6.91406 15.6562 6.72656 14.4062C6.47656 12.6562 6.63281 11.0625 7.19531 9.625C7.78906 8.15625 8.57031 6.875 9.53906 5.78125C10.5391 4.6875 11.6172 3.79687 12.7734 3.10938C13.9609 2.42188 15.0078 1.98438 15.9141 1.79688C20.9453 0.796875 24.2422 1.64062 25.8047 4.32812C26.4609 5.35938 26.8203 6.45313 26.8828 7.60938C26.9453 8.76562 26.8672 9.84375 26.6484 10.8438C26.4609 11.8125 26.2109 12.6406 25.8984 13.3281C25.6172 13.9844 25.4297 14.3438 25.3359 14.4062C25.1484 14.5938 24.8516 14.7969 24.4453 15.0156C24.0391 15.2344 23.3828 15.4375 22.4766 15.625C22.2266 15.6875 21.9766 15.7188 21.7266 15.7188C21.5078 15.7188 21.2734 15.7031 21.0234 15.6719C20.7734 15.6406 20.5547 15.5781 20.3672 15.4844ZM43.2422 25.1406C43.3672 24.9531 43.5234 24.8438 43.7109 24.8125C43.9297 24.75 44.1016 24.7656 44.2266 24.8594C44.3516 24.9531 44.4141 25.1094 44.4141 25.3281C44.4453 25.5469 44.3672 25.8438 44.1797 26.2188C43.5547 27.4062 42.7266 28.6875 41.6953 30.0625C40.6953 31.4375 39.6328 32.7344 38.5078 33.9531C37.3828 35.1406 36.2891 36.125 35.2266 36.9062C34.1641 37.6875 33.2734 38.0781 32.5547 38.0781C31.5234 38.0781 30.6641 37.875 29.9766 37.4688C29.2891 37.0625 28.7422 36.5625 28.3359 35.9688C27.9609 35.375 27.6953 34.7344 27.5391 34.0469C27.3828 33.3281 27.3359 32.6719 27.3984 32.0781C27.4297 31.5781 27.5391 30.6875 27.7266 29.4062C27.9141 28.0938 28.1641 26.5938 28.4766 24.9062C28.7891 23.1875 29.1328 21.3594 29.5078 19.4219C29.9141 17.4531 30.3359 15.5625 30.7734 13.75C30.2422 13.8125 29.7109 13.875 29.1797 13.9375C28.6484 14 28.1641 14.0312 27.7266 14.0312C26.7266 14.0312 25.7891 13.9219 24.9141 13.7031C24.0078 13.4531 23.3359 13.2188 22.8984 13C22.6484 12.875 22.5391 12.7031 22.5703 12.4844C22.6016 12.2344 22.6953 12 22.8516 11.7812C23.0078 11.5312 23.2109 11.3281 23.4609 11.1719C23.6797 10.9844 23.8828 10.8906 24.0703 10.8906C24.6641 10.9531 25.3047 11.0156 25.9922 11.0781C26.6797 11.1094 27.4297 11.1094 28.2422 11.0781C28.8359 11.0469 29.3984 11 29.9297 10.9375C30.4922 10.875 31.0391 10.7969 31.5703 10.7031C31.9766 9.20312 32.3672 7.90625 32.7422 6.8125C33.1484 5.6875 33.5078 4.90625 33.8203 4.46875C33.9141 4.3125 34.1172 4.1875 34.4297 4.09375C34.7734 3.96875 35.1328 3.89062 35.5078 3.85938C35.8828 3.79687 36.2422 3.79687 36.5859 3.85938C36.9297 3.89062 37.1797 4 37.3359 4.1875C37.4922 4.4375 37.5547 5.07812 37.5234 6.10938C37.4922 7.14062 37.3203 8.45312 37.0078 10.0469C38.3203 10.0469 39.4766 10.125 40.4766 10.2812C41.5078 10.4062 42.3828 10.5625 43.1016 10.75C43.8203 10.9062 44.3984 11.0781 44.8359 11.2656C45.2734 11.4219 45.6016 11.5312 45.8203 11.5938C46.0391 11.6562 46.1484 11.8125 46.1484 12.0625C46.1797 12.3125 46.1328 12.5781 46.0078 12.8594C45.9141 13.1094 45.7422 13.3281 45.4922 13.5156C45.2422 13.7031 44.9609 13.7656 44.6484 13.7031C44.3359 13.6719 43.9766 13.6094 43.5703 13.5156C43.1953 13.4219 42.7266 13.3438 42.1641 13.2812C41.6328 13.2188 40.9922 13.1562 40.2422 13.0938C39.4922 13.0312 38.6172 13 37.6172 13C37.4297 13 37.2109 13.0156 36.9609 13.0469C36.7422 13.0469 36.5078 13.0469 36.2578 13.0469C36.1328 13.5469 36.0078 14.0469 35.8828 14.5469C35.7891 15.0156 35.6484 15.5156 35.4609 16.0469C35.0547 17.2969 34.5859 18.6562 34.0547 20.125C33.5859 21.4062 33.0234 22.875 32.3672 24.5312C31.7109 26.1875 30.9766 27.9531 30.1641 29.8281C29.9766 31.1719 29.9922 32.2031 30.2109 32.9219C30.4609 33.6094 30.7578 34.1094 31.1016 34.4219C31.5078 34.7656 32.0078 34.9531 32.6016 34.9844C33.0703 35.0469 33.6328 34.8906 34.2891 34.5156C34.9766 34.1094 35.6797 33.5781 36.3984 32.9219C37.1172 32.2656 37.8359 31.5469 38.5547 30.7656C39.3047 29.9844 39.9922 29.2188 40.6172 28.4688C41.2422 27.7188 41.7891 27.0469 42.2578 26.4531C42.7266 25.8281 43.0547 25.3906 43.2422 25.1406ZM64.4766 27.6719C64.0391 28.2969 63.4766 29.0781 62.7891 30.0156C62.1016 30.9219 61.3828 31.8438 60.6328 32.7812C59.9141 33.6875 59.1953 34.5312 58.4766 35.3125C57.7891 36.0625 57.2109 36.5938 56.7422 36.9062C56.4297 37.0938 56.0703 37.25 55.6641 37.375C55.2578 37.5 54.8359 37.5781 54.3984 37.6094C53.9922 37.6406 53.6016 37.6094 53.2266 37.5156C52.8516 37.4531 52.5234 37.3281 52.2422 37.1406C51.9609 36.9219 51.7266 36.6094 51.5391 36.2031C51.3828 35.8594 51.2266 35.4062 51.0703 34.8438C50.9453 34.2812 50.8984 33.5781 50.9297 32.7344C50.1797 33.9844 49.3516 34.9531 48.4453 35.6406C47.5391 36.2969 46.6797 36.7812 45.8672 37.0938C44.9297 37.4375 43.9922 37.6406 43.0547 37.7031C42.6172 37.7031 42.1484 37.5469 41.6484 37.2344C41.1484 36.9531 40.7266 36.5 40.3828 35.875C40.0391 35.2188 39.8203 34.3906 39.7266 33.3906C39.6328 32.3594 39.7578 31.1406 40.1016 29.7344C40.5391 27.8281 41.2266 26.0938 42.1641 24.5312C43.1328 22.9688 44.1797 21.6406 45.3047 20.5469C46.4297 19.4219 47.5391 18.5781 48.6328 18.0156C49.7266 17.4531 50.6328 17.2031 51.3516 17.2656C52.1953 17.4219 52.8828 17.6719 53.4141 18.0156C53.8516 18.3281 54.1328 18.7969 54.2578 19.4219C54.4141 20.0156 54.1641 20.8125 53.5078 21.8125C53.9453 21.7188 54.3047 21.6562 54.5859 21.625C54.8984 21.5938 55.1328 21.5781 55.2891 21.5781C55.4766 21.5781 55.6016 21.5938 55.6641 21.625C55.6953 21.6875 55.7109 21.8281 55.7109 22.0469C55.7109 22.2344 55.6641 22.5938 55.5703 23.125C55.4766 23.6562 55.3359 24.375 55.1484 25.2812C54.9609 26.1875 54.7109 27.3594 54.3984 28.7969C54.3359 29.0781 54.2734 29.3438 54.2109 29.5938C54.1797 29.8125 54.1328 30.0469 54.0703 30.2969C54.0391 30.5156 53.9922 30.7812 53.9297 31.0938C53.8672 31.4062 53.7891 31.7969 53.6953 32.2656C53.6641 32.5469 53.6484 32.8594 53.6484 33.2031C53.6797 33.5156 53.7422 33.8125 53.8359 34.0938C53.9297 34.375 54.0703 34.6094 54.2578 34.7969C54.4766 34.9531 54.7734 35.0312 55.1484 35.0312C55.4609 35.0312 55.8672 34.8438 56.3672 34.4688C56.8672 34.0625 57.3984 33.5625 57.9609 32.9688C58.5234 32.3438 59.1016 31.6719 59.6953 30.9531C60.3203 30.2031 60.8984 29.4844 61.4297 28.7969C61.9609 28.1094 62.4297 27.5 62.8359 26.9688C63.2734 26.4375 63.5859 26.0469 63.7734 25.7969C64.0234 25.5156 64.2734 25.3594 64.5234 25.3281C64.7734 25.2656 64.9609 25.3281 65.0859 25.5156C65.2109 25.7031 65.2266 25.9844 65.1328 26.3594C65.0703 26.7344 64.8516 27.1719 64.4766 27.6719ZM50.7422 29.7344C50.8984 29.1094 51.0859 28.375 51.3047 27.5312C51.5234 26.6875 51.7109 25.875 51.8672 25.0938C52.0234 24.3125 52.1328 23.6719 52.1953 23.1719C52.2891 22.6406 52.2734 22.3906 52.1484 22.4219C51.9922 22.4531 51.8203 22.5 51.6328 22.5625C51.4766 22.625 51.2734 22.6719 51.0234 22.7031C50.7734 22.7344 50.5234 22.7812 50.2734 22.8438C50.5234 22.3438 50.6641 21.9375 50.6953 21.625C50.7578 21.2812 50.7734 21.0156 50.7422 20.8281C50.7109 20.6094 50.6484 20.4375 50.5547 20.3125C50.2109 20.0312 49.6016 20.2656 48.7266 21.0156C47.8828 21.7344 46.8984 23.0781 45.7734 25.0469C45.3047 25.8594 44.9297 26.7344 44.6484 27.6719C44.3672 28.5781 44.1641 29.4375 44.0391 30.25C43.9453 31.0625 43.9297 31.7812 43.9922 32.4062C44.0547 33 44.1797 33.3906 44.3672 33.5781C44.7109 33.9219 45.1016 34.0938 45.5391 34.0938C45.9766 34.0625 46.4141 33.9375 46.8516 33.7188C47.3203 33.4688 47.7734 33.1562 48.2109 32.7812C48.6797 32.4062 49.0859 32.0156 49.4297 31.6094C49.8047 31.2031 50.1016 30.8281 50.3203 30.4844C50.5703 30.1406 50.7109 29.8906 50.7422 29.7344ZM73.6641 19.75C74.0703 19.4375 74.4609 19.2031 74.8359 19.0469C75.2422 18.8594 75.6016 18.7344 75.9141 18.6719C76.2578 18.5781 76.6016 18.5469 76.9453 18.5781C77.7891 18.6406 78.3047 18.9062 78.4922 19.375C78.7109 19.8438 78.7422 20.5938 78.5859 21.625C78.4922 22.1562 78.3047 22.8281 78.0234 23.6406C77.7422 24.4531 77.4141 25.4531 77.0391 26.6406C76.6641 27.7969 76.2578 29.125 75.8203 30.625C75.4141 32.125 75.0234 33.8125 74.6484 35.6875C74.2734 37.2188 73.8672 38.9844 73.4297 40.9844C73.0547 42.7344 72.6016 44.8438 72.0703 47.3125C71.5703 49.7812 71.0234 52.6094 70.4297 55.7969C70.2734 56.5781 69.9297 57.0312 69.3984 57.1562C68.8984 57.2812 68.3672 57.2188 67.8047 56.9688C67.5859 56.8438 67.3828 56.7031 67.1953 56.5469C67.0391 56.3906 66.8672 56.2031 66.6797 55.9844C66.4922 55.7969 66.3359 55.5312 66.2109 55.1875C66.9297 52.5625 67.5547 50.1719 68.0859 48.0156C68.6484 45.8594 69.1484 43.9844 69.5859 42.3906C70.0547 40.5469 70.4922 38.8906 70.8984 37.4219C71.0547 36.7656 71.1953 36.125 71.3203 35.5C71.4766 34.8438 71.6328 34.2031 71.7891 33.5781C71.3828 34.2344 70.9453 34.8594 70.4766 35.4531C70.0078 36.0469 69.4922 36.5625 68.9297 37C68.3672 37.4375 67.7578 37.7656 67.1016 37.9844C66.4766 38.2344 65.8203 38.3125 65.1328 38.2188C63.4453 38 62.2422 37.375 61.5234 36.3438C60.8359 35.3125 60.5391 33.9688 60.6328 32.3125C60.6641 31.6562 60.7578 30.9375 60.9141 30.1562C61.0703 29.375 61.2422 28.625 61.4297 27.9062C61.6172 27.1875 61.7891 26.5469 61.9453 25.9844C62.1328 25.3906 62.2734 24.9688 62.3672 24.7188C62.7422 23.5312 63.0078 22.5156 63.1641 21.6719C63.3516 20.8281 63.2266 20.125 62.7891 19.5625C63.2266 19.2812 63.6328 19.0938 64.0078 19C64.4141 18.875 64.7734 18.7812 65.0859 18.7188C65.4297 18.6875 65.7734 18.6875 66.1172 18.7188C66.9609 18.8438 67.4453 19.1562 67.5703 19.6562C67.7266 20.1562 67.6797 20.9062 67.4297 21.9062C67.3047 22.4375 67.1016 23.125 66.8203 23.9688C66.5391 24.7812 66.2422 25.625 65.9297 26.5C65.6172 27.375 65.3359 28.1875 65.0859 28.9375C64.8359 29.6562 64.6953 30.1719 64.6641 30.4844C64.3828 31.8906 64.3672 32.9844 64.6172 33.7656C64.8672 34.5156 65.4141 34.8906 66.2578 34.8906C66.6641 34.8906 67.1172 34.7188 67.6172 34.375C68.1172 34 68.6172 33.5156 69.1172 32.9219C69.6484 32.3281 70.1641 31.6562 70.6641 30.9062C71.1641 30.125 71.6172 29.3438 72.0234 28.5625C72.4609 27.7812 72.8359 27.0156 73.1484 26.2656C73.4922 25.5156 73.7422 24.8438 73.8984 24.25C74.1172 23.0938 74.2578 22.1875 74.3203 21.5312C74.3828 20.875 74.1641 20.2812 73.6641 19.75Z" fill="#13B859"/>
</svg>
