<svg width="20" height="20" viewBox="0 0 20 20" fill="none" xmlns="http://www.w3.org/2000/svg">
<g clip-path="url(#clip0_729_6325)">
<path d="M12.8353 8.10996e-06C12.6814 0.00616196 12.533 0.0338543 12.3784 0.0723158L1.92145 2.62001C0.684522 2.92308 -0.0893237 4.17078 0.214523 5.40847L1.68068 11.3946C1.76952 11.7512 1.94251 12.0813 2.18515 12.3572C2.42779 12.6332 2.73303 12.847 3.07529 12.9808V11.5385C3.07529 9.4177 4.80068 7.69232 6.92145 7.69232H16.6091L15.1668 1.75462C15.0393 1.23848 14.7376 0.782124 14.3128 0.462494C13.8879 0.142865 13.3658 -0.0204784 12.8345 8.10996e-06H12.8353ZM13.7722 3.3177L14.3976 5.9377L11.8014 6.56232L11.1522 3.96616L13.7722 3.3177ZM6.92145 9.23078C5.6476 9.23078 4.61375 10.2646 4.61375 11.5385V17.6923C4.61375 18.9662 5.6476 20 6.92145 20H17.6907C18.9645 20 19.9984 18.9662 19.9984 17.6923V11.5385C19.9984 10.2646 18.9645 9.23078 17.6907 9.23078H6.92145ZM6.92145 10.4569H17.6907C18.2838 10.4569 18.7722 10.9454 18.7722 11.5385V12.3077H5.83991V11.5385C5.83991 10.9454 6.32837 10.4569 6.92145 10.4569ZM5.83991 14.6154H18.7722V17.6923C18.7722 18.2854 18.2838 18.7739 17.6907 18.7739H6.92145C6.6351 18.7722 6.36095 18.6578 6.15847 18.4553C5.95599 18.2528 5.84152 17.9787 5.83991 17.6923V14.6154Z" fill="#AAB7C6"/>
</g>
<defs>
<clipPath id="clip0_729_6325">
<rect width="20" height="20" fill="white"/>
</clipPath>
</defs>
</svg>
