<svg width="64" height="64" viewBox="0 0 64 64" fill="none" xmlns="http://www.w3.org/2000/svg">
<path d="M8 5.33334H50.68C53.6187 5.33334 56 7.728 56 10.64V53.36C56 56.2907 53.6187 58.6667 50.68 58.6667H8V5.33334ZM18.6667 10.6667H13.3333V53.3333H18.6667V10.6667ZM24 53.3333H50.6667V10.6667H24V53.3333ZM29.3333 42.6667C29.3333 40.5449 30.1762 38.5101 31.6765 37.0098C33.1768 35.5095 35.2116 34.6667 37.3333 34.6667C39.4551 34.6667 41.4899 35.5095 42.9902 37.0098C44.4905 38.5101 45.3333 40.5449 45.3333 42.6667H29.3333ZM37.3333 32C35.9188 32 34.5623 31.4381 33.5621 30.4379C32.5619 29.4377 32 28.0812 32 26.6667C32 25.2522 32.5619 23.8956 33.5621 22.8954C34.5623 21.8952 35.9188 21.3333 37.3333 21.3333C38.7478 21.3333 40.1044 21.8952 41.1046 22.8954C42.1048 23.8956 42.6667 25.2522 42.6667 26.6667C42.6667 28.0812 42.1048 29.4377 41.1046 30.4379C40.1044 31.4381 38.7478 32 37.3333 32ZM58.6667 16H64V26.6667H58.6667V16ZM58.6667 32H64V42.6667H58.6667V32Z" fill="#09299A"/>
</svg>
