<svg width="124" height="35" viewBox="0 0 124 35" fill="none" xmlns="http://www.w3.org/2000/svg">
<path d="M17 6.71094L7.71875 35H0.242188L12.9219 0.875H17.6797L17 6.71094ZM24.7109 35L15.4062 6.71094L14.6562 0.875H19.4609L32.2109 35H24.7109ZM24.2891 22.2969V27.8047H6.26562V22.2969H24.2891ZM48.6641 22.8359H39.9688V17.3516H48.6641C50.0078 17.3516 51.1016 17.1328 51.9453 16.6953C52.7891 16.2422 53.4062 15.6172 53.7969 14.8203C54.1875 14.0234 54.3828 13.125 54.3828 12.125C54.3828 11.1094 54.1875 10.1641 53.7969 9.28906C53.4062 8.41406 52.7891 7.71094 51.9453 7.17969C51.1016 6.64844 50.0078 6.38281 48.6641 6.38281H42.4062V35H35.375V0.875H48.6641C51.3359 0.875 53.625 1.35938 55.5312 2.32812C57.4531 3.28125 58.9219 4.60156 59.9375 6.28906C60.9531 7.97656 61.4609 9.90625 61.4609 12.0781C61.4609 14.2812 60.9531 16.1875 59.9375 17.7969C58.9219 19.4062 57.4531 20.6484 55.5312 21.5234C53.625 22.3984 51.3359 22.8359 48.6641 22.8359ZM79.6016 22.8359H70.9062V17.3516H79.6016C80.9453 17.3516 82.0391 17.1328 82.8828 16.6953C83.7266 16.2422 84.3438 15.6172 84.7344 14.8203C85.125 14.0234 85.3203 13.125 85.3203 12.125C85.3203 11.1094 85.125 10.1641 84.7344 9.28906C84.3438 8.41406 83.7266 7.71094 82.8828 7.17969C82.0391 6.64844 80.9453 6.38281 79.6016 6.38281H73.3438V35H66.3125V0.875H79.6016C82.2734 0.875 84.5625 1.35938 86.4688 2.32812C88.3906 3.28125 89.8594 4.60156 90.875 6.28906C91.8906 7.97656 92.3984 9.90625 92.3984 12.0781C92.3984 14.2812 91.8906 16.1875 90.875 17.7969C89.8594 19.4062 88.3906 20.6484 86.4688 21.5234C84.5625 22.3984 82.2734 22.8359 79.6016 22.8359ZM101.938 0.875L109.062 16.4375L116.188 0.875H123.852L112.625 22.5781V35H105.5V22.5781L94.25 0.875H101.938Z" fill="#20718D"/>
</svg>
