<svg width="64" height="64" viewBox="0 0 64 64" fill="none" xmlns="http://www.w3.org/2000/svg">
<path d="M31.9997 34.6666C36.4183 34.6666 39.9997 38.248 39.9997 42.6666C39.9997 44.9333 39.0583 46.976 37.5463 48.432L32.453 53.3333H39.9997V58.6666H23.9997V54.0693L33.8477 44.5893C34.3543 44.1013 34.6663 43.4213 34.6663 42.6666C34.6663 41.1946 33.4717 40 31.9997 40C30.5277 40 29.333 41.1946 29.333 42.6666H23.9997C23.9997 38.248 27.581 34.6666 31.9997 34.6666ZM47.9997 34.6666V45.3333H53.333V34.6666H58.6663V58.6666H53.333V50.6666H42.6663V34.6666H47.9997ZM10.6663 32C10.6663 38.7386 13.789 44.7466 18.6663 48.656V55.0986C10.6957 50.488 5.33301 41.872 5.33301 32H10.6663ZM31.9997 5.33331C45.8263 5.33331 57.197 15.8586 58.533 29.3333H53.1677C51.8557 18.8106 42.8797 10.6666 31.9997 10.6666C25.429 10.6666 19.5517 13.6373 15.6397 18.3066L21.333 24H5.33301V7.99998L11.8583 14.5226C16.7463 8.89598 23.957 5.33331 31.9997 5.33331Z" fill="#09299A"/>
</svg>
