<svg width="35" height="34" viewBox="0 0 35 34" fill="none" xmlns="http://www.w3.org/2000/svg">
<path d="M12.5977 16.1038H14.3899V17.896H12.5977V16.1038ZM12.5977 19.6882H14.3899V21.4804H12.5977V19.6882ZM16.1821 16.1038H17.9743V17.896H16.1821V16.1038ZM16.1821 19.6882H17.9743V21.4804H16.1821V19.6882ZM19.7665 16.1038H21.5587V17.896H19.7665V16.1038ZM19.7665 19.6882H21.5587V21.4804H19.7665V19.6882Z" fill="#AAB7C6"/>
<path d="M10.8039 25.9609H23.3494C24.3378 25.9609 25.1416 25.1571 25.1416 24.1687V11.6232C25.1416 10.6348 24.3378 9.83103 23.3494 9.83103H21.5572V8.03882H19.765V9.83103H14.3883V8.03882H12.5961V9.83103H10.8039C9.81552 9.83103 9.01172 10.6348 9.01172 11.6232V24.1687C9.01172 25.1571 9.81552 25.9609 10.8039 25.9609ZM23.3494 13.4154L23.3503 24.1687H10.8039V13.4154H23.3494Z" fill="#AAB7C6"/>
</svg>
