<svg width="19" height="19" viewBox="0 0 19 19" fill="none" xmlns="http://www.w3.org/2000/svg">
<path d="M5.53906 14.25V13.4583C5.53906 12.4085 5.9561 11.4017 6.69843 10.6594C7.44076 9.91704 8.44758 9.5 9.4974 9.5M9.4974 9.5C10.5472 9.5 11.554 9.91704 12.2964 10.6594C13.0387 11.4017 13.4557 12.4085 13.4557 13.4583V14.25M9.4974 9.5C10.1273 9.5 10.7314 9.24978 11.1768 8.80438C11.6222 8.35898 11.8724 7.75489 11.8724 7.125C11.8724 6.49511 11.6222 5.89102 11.1768 5.44562C10.7314 5.00022 10.1273 4.75 9.4974 4.75C8.86751 4.75 8.26342 5.00022 7.81802 5.44562C7.37262 5.89102 7.1224 6.49511 7.1224 7.125C7.1224 7.75489 7.37262 8.35898 7.81802 8.80438C8.26342 9.24978 8.86751 9.5 9.4974 9.5ZM0.789062 14.25V13.4583C0.789063 12.8284 1.03929 12.2244 1.48468 11.779C1.93008 11.3336 2.53417 11.0833 3.16406 11.0833M3.16406 11.0833C3.58399 11.0833 3.98672 10.9165 4.28365 10.6196C4.58058 10.3227 4.7474 9.91993 4.7474 9.5C4.7474 9.08007 4.58058 8.67735 4.28365 8.38041C3.98672 8.08348 3.58399 7.91667 3.16406 7.91667C2.74414 7.91667 2.34141 8.08348 2.04448 8.38041C1.74754 8.67735 1.58073 9.08007 1.58073 9.5C1.58073 9.91993 1.74754 10.3227 2.04448 10.6196C2.34141 10.9165 2.74414 11.0833 3.16406 11.0833ZM18.2057 14.25V13.4583C18.2057 12.8284 17.9555 12.2244 17.5101 11.779C17.0647 11.3336 16.4606 11.0833 15.8307 11.0833M15.8307 11.0833C16.2507 11.0833 16.6534 10.9165 16.9503 10.6196C17.2472 10.3227 17.4141 9.91993 17.4141 9.5C17.4141 9.08007 17.2472 8.67735 16.9503 8.38041C16.6534 8.08348 16.2507 7.91667 15.8307 7.91667C15.4108 7.91667 15.0081 8.08348 14.7111 8.38041C14.4142 8.67735 14.2474 9.08007 14.2474 9.5C14.2474 9.91993 14.4142 10.3227 14.7111 10.6196C15.0081 10.9165 15.4108 11.0833 15.8307 11.0833Z" stroke="#AAB7C6" stroke-width="1.5" stroke-linecap="round" stroke-linejoin="round"/>
</svg>
