<svg width="24" height="24" viewBox="0 0 24 24" fill="none" xmlns="http://www.w3.org/2000/svg">
<path d="M13.9964 11H12.9964V9.99997C12.9964 9.73475 12.891 9.4804 12.7035 9.29286C12.5159 9.10533 12.2616 8.99997 11.9964 8.99997C11.7312 8.99997 11.4768 9.10533 11.2893 9.29286C11.1017 9.4804 10.9964 9.73475 10.9964 9.99997V11H9.99637C9.73115 11 9.4768 11.1053 9.28926 11.2929C9.10173 11.4804 8.99637 11.7348 8.99637 12C8.99637 12.2652 9.10173 12.5195 9.28926 12.7071C9.4768 12.8946 9.73115 13 9.99637 13H10.9964V14C10.9964 14.2652 11.1017 14.5195 11.2893 14.7071C11.4768 14.8946 11.7312 15 11.9964 15C12.2616 15 12.5159 14.8946 12.7035 14.7071C12.891 14.5195 12.9964 14.2652 12.9964 14V13H13.9964C14.2616 13 14.5159 12.8946 14.7035 12.7071C14.891 12.5195 14.9964 12.2652 14.9964 12C14.9964 11.7348 14.891 11.4804 14.7035 11.2929C14.5159 11.1053 14.2616 11 13.9964 11ZM20.1564 4.99997C19.0901 3.94467 17.6817 3.30524 16.1854 3.19705C14.6891 3.08886 13.2034 3.51904 11.9964 4.40997C10.724 3.46361 9.14036 3.03448 7.56429 3.20901C5.98822 3.38353 4.53681 4.14875 3.50234 5.35055C2.46788 6.55236 1.92719 8.10149 1.98917 9.68598C2.05115 11.2705 2.71119 12.7726 3.83637 13.89L9.83637 19.94C10.3989 20.5018 11.1614 20.8173 11.9564 20.8173C12.7514 20.8173 13.5139 20.5018 14.0764 19.94L20.0764 13.89C20.6673 13.3126 21.1383 12.6242 21.4623 11.8642C21.7863 11.1042 21.957 10.2877 21.9644 9.4616C21.9718 8.63548 21.8159 7.81603 21.5056 7.05035C21.1954 6.28467 20.7368 5.58786 20.1564 4.99997ZM18.7464 12.46L12.7464 18.46C12.6534 18.5537 12.5428 18.6281 12.4209 18.6789C12.2991 18.7296 12.1684 18.7558 12.0364 18.7558C11.9044 18.7558 11.7737 18.7296 11.6518 18.6789C11.5299 18.6281 11.4193 18.5537 11.3264 18.46L5.32637 12.46C4.54213 11.6583 4.10298 10.5814 4.10298 9.45997C4.10298 8.3385 4.54213 7.26162 5.32637 6.45997C6.12552 5.67096 7.20334 5.22854 8.32637 5.22854C9.4494 5.22854 10.5272 5.67096 11.3264 6.45997C11.4193 6.5537 11.5299 6.62809 11.6518 6.67886C11.7737 6.72963 11.9044 6.75577 12.0364 6.75577C12.1684 6.75577 12.2991 6.72963 12.4209 6.67886C12.5428 6.62809 12.6534 6.5537 12.7464 6.45997C13.5455 5.67096 14.6233 5.22854 15.7464 5.22854C16.8694 5.22854 17.9472 5.67096 18.7464 6.45997C19.5366 7.26252 19.9796 8.34365 19.9796 9.46997C19.9796 10.5963 19.5366 11.6774 18.7464 12.48V12.46Z" fill="#18425D"/>
</svg>
