<svg width="170" height="35" viewBox="0 0 170 35" fill="none" xmlns="http://www.w3.org/2000/svg">
<path d="M23.1484 29.5156V35H4.98438V29.5156H23.1484ZM7.28125 0.875V35H0.25V0.875H7.28125ZM20.7812 14.7734V20.1172H4.98438V14.7734H20.7812ZM23.125 0.875V6.38281H4.98438V0.875H23.125ZM41.125 6.71094L31.8438 35H24.3672L37.0469 0.875H41.8047L41.125 6.71094ZM48.8359 35L39.5312 6.71094L38.7812 0.875H43.5859L56.3359 35H48.8359ZM48.4141 22.2969V27.8047H30.3906V22.2969H48.4141ZM81.4375 29.5156V35H64.2578V29.5156H81.4375ZM66.5312 0.875V35H59.5V0.875H66.5312ZM95.3828 0.875V35H88.375V0.875H95.3828ZM105.883 0.875V6.38281H78.0391V0.875H105.883ZM132.648 14.7734V20.2578H114.836V14.7734H132.648ZM116.922 0.875V35H109.891V0.875H116.922ZM137.664 0.875V35H130.656V0.875H137.664ZM147.812 0.875L154.938 16.4375L162.062 0.875H169.727L158.5 22.5781V35H151.375V22.5781L140.125 0.875H147.812Z" fill="#20718D"/>
</svg>
