<svg width="90" height="90" viewBox="0 0 90 90" fill="none" xmlns="http://www.w3.org/2000/svg">
<path d="M71.4771 90H9C4.02944 90 0 85.9706 0 81V22.5H90V71.4771L71.4771 90Z" fill="white"/>
<path d="M0 22.5H90V33.75H0V22.5Z" fill="#DDF1E6"/>
<path d="M77.1016 71.4771C73.995 71.4771 71.4766 73.9954 71.4766 77.1021V90L89.9995 71.4771H77.1016Z" fill="#DDF1E6"/>
<path d="M90 28.125H0V14.0625C0 10.9561 2.51862 8.4375 5.625 8.4375H84.375C87.4814 8.4375 90 10.9561 90 14.0625V28.125Z" fill="white"/>
<path d="M16.875 11.25H11.25V2.8125C11.25 1.25931 12.5093 0 14.0625 0C15.6157 0 16.875 1.25931 16.875 2.8125V11.25Z" fill="#DDF1E6"/>
<path d="M78.75 11.25H73.125V2.8125C73.125 1.25931 74.3843 0 75.9375 0C77.4907 0 78.75 1.25931 78.75 2.8125V11.25Z" fill="#DDF1E6"/>
</svg>
