<svg width="64" height="64" viewBox="0 0 64 64" fill="none" xmlns="http://www.w3.org/2000/svg">
<path fill-rule="evenodd" clip-rule="evenodd" d="M24.666 18.6667C24.666 16.7218 25.4386 14.8565 26.8139 13.4813C28.1892 12.106 30.0544 11.3334 31.9993 11.3334C33.9443 11.3334 35.8095 12.106 37.1848 13.4813C38.5601 14.8565 39.3327 16.7218 39.3327 18.6667C39.3327 20.6116 38.5601 22.4769 37.1848 23.8522C35.8095 25.2274 33.9443 26 31.9993 26C30.0544 26 28.1892 25.2274 26.8139 23.8522C25.4386 22.4769 24.666 20.6116 24.666 18.6667ZM31.9993 15.3334C31.1153 15.3334 30.2674 15.6846 29.6423 16.3097C29.0172 16.9348 28.666 17.7827 28.666 18.6667C28.666 19.5508 29.0172 20.3986 29.6423 21.0237C30.2674 21.6489 31.1153 22 31.9993 22C32.8834 22 33.7313 21.6489 34.3564 21.0237C34.9815 20.3986 35.3327 19.5508 35.3327 18.6667C35.3327 17.7827 34.9815 16.9348 34.3564 16.3097C33.7313 15.6846 32.8834 15.3334 31.9993 15.3334Z" fill="#0A7D08"/>
<path d="M14.1597 25.8854C14.3666 25.3971 14.759 25.011 15.2506 24.812C15.7422 24.6129 16.2926 24.6173 16.781 24.8241L16.7837 24.8267L16.7997 24.8347L16.8717 24.8641L17.165 24.9841C18.7993 25.6376 20.4573 26.23 22.1357 26.7601C25.2797 27.7467 29.037 28.6667 31.9997 28.6667C34.9623 28.6667 38.7197 27.7467 41.861 26.7601C43.64 26.1976 45.396 25.5651 47.125 24.8641L47.1997 24.8347L47.2157 24.8267H47.2183C47.7027 24.6387 48.2413 24.6466 48.7199 24.8487C49.1986 25.0508 49.5799 25.4312 49.783 25.9095C49.986 26.3878 49.995 26.9263 49.808 27.4111C49.621 27.8958 49.2527 28.2888 48.781 28.5067L48.7703 28.5121L48.7437 28.5227L48.6583 28.5601L48.3303 28.6934C46.598 29.3864 44.8403 30.0144 43.061 30.5761C40.4263 31.4027 37.0983 32.2801 33.9997 32.5681V35.8747C33.9997 37.0214 34.3303 38.1494 34.9517 39.1174L41.6823 49.5841C41.8245 49.8051 41.9218 50.0519 41.9686 50.3104C42.0154 50.569 42.0108 50.8342 41.9551 51.091C41.8993 51.3478 41.7936 51.5911 41.6439 51.807C41.4941 52.0229 41.3033 52.2072 41.0823 52.3494C40.8614 52.4916 40.6146 52.5889 40.356 52.6356C40.0974 52.6824 39.8322 52.6779 39.5754 52.6221C39.3186 52.5664 39.0753 52.4607 38.8594 52.3109C38.6435 52.1612 38.4592 51.9704 38.317 51.7494L31.9997 41.9201L25.6797 51.7494C25.5425 51.9806 25.3601 52.1818 25.1433 52.3409C24.9266 52.5 24.6801 52.6138 24.4184 52.6754C24.1567 52.7371 23.8853 52.7453 23.6203 52.6997C23.3554 52.6541 23.1023 52.5555 22.8763 52.4098C22.6504 52.2642 22.4561 52.0745 22.305 51.8521C22.154 51.6296 22.0494 51.379 21.9975 51.1153C21.9455 50.8515 21.9472 50.5799 22.0026 50.3169C22.058 50.0538 22.1658 49.8045 22.3197 49.5841L29.0477 39.1174C29.6696 38.1493 30.0001 37.0228 29.9997 35.8721V32.5681C26.901 32.2801 23.573 31.4054 20.9357 30.5761C19.0448 29.9784 17.1785 29.3058 15.341 28.5601L15.253 28.5227L15.229 28.5121L15.2183 28.5094C14.9765 28.4067 14.7572 28.2574 14.5731 28.0699C14.389 27.8824 14.2436 27.6605 14.1453 27.4168C14.0469 27.1731 13.9976 26.9124 14.0001 26.6497C14.0026 26.3869 14.0568 26.1272 14.1597 25.8854Z" fill="#0A7D08"/>
<path fill-rule="evenodd" clip-rule="evenodd" d="M3.33301 32C3.33301 16.168 16.1677 3.33337 31.9997 3.33337C47.8317 3.33337 60.6663 16.168 60.6663 32C60.6663 47.832 47.8317 60.6667 31.9997 60.6667C16.1677 60.6667 3.33301 47.832 3.33301 32ZM31.9997 7.33337C25.4577 7.33337 19.1836 9.93218 14.5577 14.5581C9.93181 19.184 7.33301 25.458 7.33301 32C7.33301 38.542 9.93181 44.8161 14.5577 49.442C19.1836 54.0679 25.4577 56.6667 31.9997 56.6667C38.5417 56.6667 44.8157 54.0679 49.4416 49.442C54.0675 44.8161 56.6663 38.542 56.6663 32C56.6663 25.458 54.0675 19.184 49.4416 14.5581C44.8157 9.93218 38.5417 7.33337 31.9997 7.33337Z" fill="#0A7D08"/>
</svg>
