<svg width="64" height="64" viewBox="0 0 64 64" fill="none" xmlns="http://www.w3.org/2000/svg">
<path d="M53.3333 5.33331C54.0406 5.33331 54.7189 5.61426 55.219 6.11436C55.7191 6.61446 56 7.29274 56 7.99998V56C56 56.7072 55.7191 57.3855 55.219 57.8856C54.7189 58.3857 54.0406 58.6666 53.3333 58.6666H16C15.2928 58.6666 14.6145 58.3857 14.1144 57.8856C13.6143 57.3855 13.3333 56.7072 13.3333 56V50.6666H8V45.3333H13.3333V40H8V34.6666H13.3333V29.3333H8V24H13.3333V18.6666H8V13.3333H13.3333V7.99998C13.3333 7.29274 13.6143 6.61446 14.1144 6.11436C14.6145 5.61426 15.2928 5.33331 16 5.33331H53.3333ZM50.6667 10.6666H18.6667V53.3333H50.6667V10.6666ZM37.3333 21.3333V29.3333H45.3333V34.6666H37.3307L37.3333 42.6666H32L31.9973 34.6666H24V29.3333H32V21.3333H37.3333Z" fill="#09299A"/>
</svg>
