<svg width="35" height="34" viewBox="0 0 35 34" fill="none" xmlns="http://www.w3.org/2000/svg">
<path d="M0 4.45453C0 2.47492 1.6048 0.870117 3.58441 0.870117H34.0519V33.1298H3.58442C1.6048 33.1298 0 31.525 0 29.5454V4.45453Z" fill="white"/>
<path d="M10.7516 13.4155C11.2465 13.4155 11.6477 13.0143 11.6477 12.5194C11.6477 12.0245 11.2465 11.6233 10.7516 11.6233C10.2567 11.6233 9.85547 12.0245 9.85547 12.5194C9.85547 13.0143 10.2567 13.4155 10.7516 13.4155Z" fill="#353F50"/>
<path d="M10.7516 17.896C11.2465 17.896 11.6477 17.4948 11.6477 16.9999C11.6477 16.505 11.2465 16.1038 10.7516 16.1038C10.2567 16.1038 9.85547 16.505 9.85547 16.9999C9.85547 17.4948 10.2567 17.896 10.7516 17.896Z" fill="#353F50"/>
<path d="M10.7516 22.3764C11.2465 22.3764 11.6477 21.9752 11.6477 21.4803C11.6477 20.9854 11.2465 20.5842 10.7516 20.5842C10.2567 20.5842 9.85547 20.9854 9.85547 21.4803C9.85547 21.9752 10.2567 22.3764 10.7516 22.3764Z" fill="#353F50"/>
<path d="M25.1445 16.1038H14.2837C13.8185 16.1038 13.4414 16.4809 13.4414 16.9461V17.0536C13.4414 17.5188 13.8185 17.896 14.2837 17.896H25.1445C25.6097 17.896 25.9869 17.5188 25.9869 17.0536V16.9461C25.9869 16.4809 25.6097 16.1038 25.1445 16.1038Z" fill="#353F50"/>
<path d="M25.1445 20.5842H14.2837C13.8185 20.5842 13.4414 20.9614 13.4414 21.4266V21.5341C13.4414 21.9993 13.8185 22.3764 14.2837 22.3764H25.1445C25.6097 22.3764 25.9869 21.9993 25.9869 21.5341V21.4266C25.9869 20.9614 25.6097 20.5842 25.1445 20.5842Z" fill="#353F50"/>
<path d="M25.1445 11.6233H14.2837C13.8185 11.6233 13.4414 12.0004 13.4414 12.4656V12.5732C13.4414 13.0384 13.8185 13.4155 14.2837 13.4155H25.1445C25.6097 13.4155 25.9869 13.0384 25.9869 12.5732V12.4656C25.9869 12.0004 25.6097 11.6233 25.1445 11.6233Z" fill="#353F50"/>
</svg>
