<svg width="215" height="35" viewBox="0 0 215 35" fill="none" xmlns="http://www.w3.org/2000/svg">
<path d="M3.53906 0.875H9.49219L18.2578 25.9297L27.0234 0.875H32.9766L20.6484 35H15.8672L3.53906 0.875ZM0.328125 0.875H6.25781L7.33594 25.2969V35H0.328125V0.875ZM30.2578 0.875H36.2109V35H29.1797V25.2969L30.2578 0.875ZM65.2734 29.5156V35H47.1094V29.5156H65.2734ZM49.4062 0.875V35H42.375V0.875H49.4062ZM62.9062 14.7734V20.1172H47.1094V14.7734H62.9062ZM65.25 0.875V6.38281H47.1094V0.875H65.25ZM79.8516 35H72.4219L72.4688 29.5156H79.8516C81.6953 29.5156 83.25 29.1016 84.5156 28.2734C85.7812 27.4297 86.7344 26.2031 87.375 24.5938C88.0312 22.9844 88.3594 21.0391 88.3594 18.7578V17.0938C88.3594 15.3438 88.1719 13.8047 87.7969 12.4766C87.4375 11.1484 86.8984 10.0312 86.1797 9.125C85.4609 8.21875 84.5781 7.53906 83.5312 7.08594C82.4844 6.61719 81.2812 6.38281 79.9219 6.38281H72.2812V0.875H79.9219C82.2031 0.875 84.2891 1.26563 86.1797 2.04688C88.0859 2.8125 89.7344 3.91406 91.125 5.35156C92.5156 6.78906 93.5859 8.50781 94.3359 10.5078C95.1016 12.4922 95.4844 14.7031 95.4844 17.1406V18.7578C95.4844 21.1797 95.1016 23.3906 94.3359 25.3906C93.5859 27.3906 92.5156 29.1094 91.125 30.5469C89.75 31.9688 88.1016 33.0703 86.1797 33.8516C84.2734 34.6172 82.1641 35 79.8516 35ZM76.4062 0.875V35H69.375V0.875H76.4062ZM108.07 0.875V35H101.062V0.875H108.07ZM142.43 0.875V35H135.398L121.688 12.125V35H114.656V0.875H121.688L135.422 23.7734V0.875H142.43ZM156.023 0.875V35H149.016V0.875H156.023ZM187.289 29.5156V35H163.102V29.5156H187.289ZM186.938 4.78906L166.219 35H161.273V30.9688L182.156 0.875H186.938V4.78906ZM184.523 0.875V6.38281H161.297V0.875H184.523ZM214.664 29.5156V35H196.5V29.5156H214.664ZM198.797 0.875V35H191.766V0.875H198.797ZM212.297 14.7734V20.1172H196.5V14.7734H212.297ZM214.641 0.875V6.38281H196.5V0.875H214.641Z" fill="#20718D"/>
</svg>
