<svg width="20" height="20" viewBox="0 0 20 20" fill="none" xmlns="http://www.w3.org/2000/svg">
<path d="M11.0482 2.49998C6.80649 2.38331 3.33149 5.79165 3.33149 9.99998H1.83982C1.46482 9.99998 1.28149 10.45 1.54815 10.7083L3.87315 13.0416C4.03982 13.2083 4.29815 13.2083 4.46482 13.0416L6.78982 10.7083C6.84741 10.6496 6.88631 10.5751 6.90164 10.4943C6.91697 10.4134 6.90802 10.3299 6.87594 10.2541C6.84386 10.1784 6.79007 10.1138 6.72136 10.0686C6.65265 10.0234 6.57208 9.9995 6.48982 9.99998H4.99815C4.99815 6.74998 7.64815 4.12498 10.9148 4.16665C14.0148 4.20831 16.6232 6.81665 16.6648 9.91665C16.7065 13.175 14.0815 15.8333 10.8315 15.8333C9.48982 15.8333 8.24815 15.375 7.26482 14.6C7.10521 14.4742 6.90494 14.4116 6.70213 14.4239C6.49931 14.4361 6.30808 14.5226 6.16482 14.6666C5.81482 15.0166 5.83982 15.6083 6.23149 15.9083C7.54076 16.9437 9.1623 17.5048 10.8315 17.5C15.0398 17.5 18.4482 14.025 18.3315 9.78331C18.2232 5.87498 14.9565 2.60831 11.0482 2.49998ZM10.6232 6.66665C10.2815 6.66665 9.99815 6.94998 9.99815 7.29165V10.3583C9.99815 10.65 10.1565 10.925 10.4065 11.075L13.0065 12.6166C13.3065 12.7916 13.6898 12.6916 13.8648 12.4C14.0398 12.1 13.9398 11.7166 13.6482 11.5416L11.2482 10.1166V7.28331C11.2482 6.94998 10.9648 6.66665 10.6232 6.66665Z" fill="#AAB7C6"/>
</svg>
