<svg width="64" height="64" viewBox="0 0 64 64" fill="none" xmlns="http://www.w3.org/2000/svg">
<path d="M40 10.6667H13.3333V53.3333H50.6667V21.3333H40V10.6667ZM8 7.97867C8 6.51734 9.192 5.33334 10.664 5.33334H42.6667L56 18.6667V55.9813C56.0025 56.3315 55.9359 56.6788 55.8042 57.0033C55.6724 57.3277 55.4781 57.6231 55.2322 57.8724C54.9863 58.1218 54.6937 58.3203 54.3711 58.4566C54.0485 58.5928 53.7022 58.6642 53.352 58.6667H10.648C9.94767 58.6618 9.27738 58.3816 8.78191 57.8866C8.28645 57.3917 8.00559 56.7216 8 56.0213V7.97867ZM34.6667 32V42.6667H29.3333V32H21.3333L32 21.3333L42.6667 32H34.6667Z" fill="#09299A"/>
</svg>
