<svg width="64" height="64" viewBox="0 0 64 64" fill="none" xmlns="http://www.w3.org/2000/svg">
<path d="M56 34H36C34.9395 34.0011 33.9227 34.4228 33.1727 35.1727C32.4228 35.9227 32.0011 36.9395 32 38V50C32.0011 51.0605 32.4228 52.0773 33.1727 52.8273C33.9227 53.5772 34.9395 53.9989 36 54H44V50H36V38H56V50H50.93L45.742 57.78L49.07 60L53.07 54H56C57.0605 53.9989 58.0773 53.5772 58.8273 52.8273C59.5772 52.0773 59.9989 51.0605 60 50V38C59.9989 36.9395 59.5772 35.9227 58.8273 35.1727C58.0773 34.4228 57.0605 34.0011 56 34ZM17.334 48.218L19.056 46.494C19.2867 46.2633 19.5801 46.1055 19.8998 46.0401C20.2194 45.9747 20.5512 46.0045 20.854 46.126L22.954 46.966C23.2628 47.0898 23.5274 47.3032 23.7138 47.5788C23.9003 47.8543 23.9999 48.1793 24 48.512V52.328C24.0006 52.5549 23.9549 52.7796 23.8656 52.9882C23.7763 53.1968 23.6453 53.3849 23.4807 53.5411C23.3161 53.6973 23.1213 53.8182 22.9083 53.8964C22.6953 53.9746 22.4686 54.0085 22.242 53.996C7.534 53.082 4.562 40.624 4.012 35.852C3.98549 35.6189 4.00858 35.3828 4.07974 35.1593C4.1509 34.9357 4.26853 34.7297 4.42491 34.5548C4.58129 34.38 4.77289 34.2401 4.98712 34.1445C5.20136 34.0489 5.43339 33.9996 5.668 34H9.416C9.74919 34.0001 10.0747 34.1 10.3506 34.2868C10.6265 34.4736 10.8402 34.7387 10.964 35.048L11.804 37.148C11.925 37.4505 11.9547 37.7819 11.8893 38.1012C11.8238 38.4204 11.6663 38.7134 11.436 38.944L9.712 40.666C10.0114 42.5726 10.9122 44.3336 12.283 45.6922C13.6538 47.0507 15.4248 47.9357 17.334 48.218ZM42 18H56V22H42V18ZM42 10H60V14H42V10ZM34 12L28 16.4V12C27.9989 10.9395 27.5772 9.92266 26.8273 9.17274C26.0773 8.42283 25.0605 8.00106 24 8H8C6.93946 8.00106 5.92266 8.42283 5.17274 9.17274C4.42283 9.92266 4.00106 10.9395 4 12V24C4.00106 25.0605 4.42283 26.0773 5.17274 26.8273C5.92266 27.5772 6.93946 27.9989 8 28H24C25.0605 27.9989 26.0773 27.5772 26.8273 26.8273C27.5772 26.0773 27.9989 25.0605 28 24V19.6L34 24V12ZM8 24V12H24V24H8Z" fill="#0A7D08"/>
</svg>
