<svg width="59" height="57" viewBox="0 0 59 57" fill="none" xmlns="http://www.w3.org/2000/svg">
<circle cx="22.7961" cy="34.2043" r="22.7961" fill="#E0F5E3"/>
<path d="M26.0878 46.7952H15.5042C13.7276 46.7952 12.2911 45.3477 12.3048 43.5714L12.4511 24.3734C12.4645 22.6158 13.893 21.198 15.6506 21.198H26.0878M26.0878 46.7952H48.1083C49.6079 46.7952 50.9064 45.7539 51.2317 44.29L57.0922 21.4002C57.5363 19.4019 56.0158 17.506 53.9688 17.506H45.0397C43.0235 17.506 41.4401 16.1563 41.8308 14.1784L43.4822 5.81991C43.8729 3.84199 42.3593 2 40.3433 2H39.7143C38.5764 2 37.5242 2.60462 36.9506 3.58733L26.0878 21.198M26.0878 46.7952V21.198" stroke="#519E47" stroke-width="3.44579"/>
</svg>
