<svg width="57" height="56" viewBox="0 0 57 56" fill="none" xmlns="http://www.w3.org/2000/svg">
<circle cx="22.7961" cy="33.2043" r="22.7961" fill="#E0F5E3"/>
<path d="M11.7025 46.637L55.2978 46.637L55.299 46.337V46.637H55.2983C55.4281 46.6375 55.5567 46.6123 55.6767 46.563C55.7969 46.5136 55.9061 46.441 55.9982 46.3493C56.0903 46.2576 56.1633 46.1487 56.2132 46.0287C56.263 45.9087 56.2887 45.78 56.2887 45.6501V17.8207C56.2887 17.559 56.1847 17.3079 55.9996 17.1229C55.8145 16.9378 55.5635 16.8338 55.3018 16.8338C55.04 16.8338 54.789 16.9378 54.6039 17.1229C54.4188 17.3079 54.3148 17.559 54.3148 17.8207V44.6632H12.6895V17.8207C12.6895 17.559 12.5855 17.3079 12.4004 17.1229C12.2153 16.9378 11.9643 16.8338 11.7025 16.8338C11.4408 16.8338 11.1898 16.9378 11.0047 17.1229C10.8196 17.3079 10.7156 17.559 10.7156 17.8207V45.6501C10.7156 45.9118 10.8196 46.1629 11.0047 46.3479C11.1898 46.533 11.4408 46.637 11.7025 46.637Z" fill="#519E47" stroke="#519E47" stroke-width="0.6"/>
<path d="M56.2645 17.5485L56.2645 17.5485C56.2296 17.4217 56.1697 17.3032 56.0883 17.2C56.007 17.0967 55.9058 17.0107 55.7908 16.9471C55.6757 16.8835 55.5491 16.8435 55.4184 16.8294C55.2877 16.8154 55.1555 16.8276 55.0296 16.8654C54.9048 16.9028 54.7887 16.9645 54.6879 17.047L33.5 33.7421L12.3121 17.0434C12.2113 16.9609 12.0952 16.8991 11.9704 16.8617C11.8445 16.8239 11.7123 16.8117 11.5816 16.8258C11.4509 16.8398 11.3243 16.8798 11.2092 16.9434C11.0942 17.0071 10.993 17.093 10.9117 17.1963C10.8303 17.2996 10.7704 17.4181 10.7355 17.5448C10.7005 17.6715 10.6913 17.804 10.7082 17.9344C10.7252 18.0647 10.768 18.1904 10.8342 18.304C10.8998 18.4165 10.987 18.5149 11.0908 18.5936L32.8893 35.7738C32.8893 35.7738 32.8893 35.7738 32.8893 35.7738C33.0633 35.9109 33.2784 35.9855 33.4999 35.9856H33.5001C33.7217 35.9855 33.9367 35.9109 34.1107 35.7738L55.9092 18.5973C56.013 18.5186 56.1002 18.4202 56.1658 18.3076C56.232 18.1941 56.2748 18.0684 56.2918 17.938C56.3087 17.8077 56.2995 17.6752 56.2645 17.5485ZM33.925 35.5382C33.8039 35.6336 33.6542 35.6856 33.5 35.6856L33.925 35.5382Z" fill="#519E47" stroke="#519E47" stroke-width="0.6"/>
<path d="M55.2978 46.6369L55.4221 46.6371L55.4345 46.6247C55.5854 46.6037 55.73 46.5479 55.8566 46.461C56.0199 46.349 56.1457 46.1904 56.2177 46.0059C56.2897 45.8213 56.3044 45.6194 56.2601 45.4264C56.2158 45.2334 56.1144 45.0582 55.9692 44.9235L55.968 44.9224L39.6422 29.9576L39.6422 29.9576L39.6385 29.9543C39.4447 29.7825 39.1911 29.6937 38.9325 29.7072C38.6739 29.7207 38.4309 29.8352 38.256 30.0262C38.0811 30.2172 37.9883 30.4692 37.9975 30.728C38.0068 30.9868 38.1174 31.2316 38.3055 31.4096L38.3054 31.4097L38.3089 31.4129L54.6292 46.3732C54.6296 46.3735 54.6299 46.3738 54.6303 46.3742C54.8117 46.5427 55.0501 46.6366 55.2978 46.6369Z" fill="#519E47" stroke="#519E47" stroke-width="0.6"/>
<path d="M11.0328 44.9251L11.0328 44.9251L27.3558 29.9576L27.3595 29.9542L27.3596 29.9543C27.5533 29.7825 27.8069 29.6937 28.0655 29.7072C28.3241 29.7207 28.5671 29.8352 28.742 30.0262L11.0328 44.9251ZM11.0328 44.9251L11.0316 44.9263C10.8863 45.0609 10.785 45.2361 10.7407 45.4292C10.6963 45.6222 10.7111 45.8241 10.7831 46.0086C10.855 46.1931 10.9808 46.3517 11.1441 46.4638C11.3074 46.5758 11.5007 46.6362 11.6987 46.6369L11.7018 46.6369M11.0328 44.9251L11.7018 46.6369M11.7018 46.6369C11.946 46.6354 12.1809 46.5429 12.3606 46.3776M11.7018 46.6369L12.3606 46.3776M12.3606 46.3776C12.3608 46.3775 12.3609 46.3773 12.3611 46.3772L12.3606 46.3776Z" fill="#519E47" stroke="#519E47" stroke-width="0.6"/>
<path d="M26.4532 5.67357L26.4532 5.67357L26.4518 5.67465C26.2416 5.83216 26.1027 6.06671 26.0655 6.32668C26.0283 6.58665 26.0958 6.85076 26.2534 7.0609L26.4934 6.88096L26.2534 7.0609C26.4109 7.27103 26.6454 7.41 26.9054 7.4472C27.1651 7.48437 27.4289 7.41697 27.6389 7.25983C27.6391 7.25965 27.6394 7.25948 27.6396 7.25931L33.5046 2.91481L39.3706 7.26015C39.5402 7.38603 39.7458 7.45396 39.957 7.4539C39.9571 7.4539 39.9571 7.4539 39.9572 7.4539L39.9603 7.4539C39.9604 7.4539 39.9605 7.4539 39.9607 7.4539C40.1684 7.45409 40.3708 7.38878 40.5392 7.26724C40.7077 7.14561 40.8335 6.9739 40.8987 6.77657C40.9639 6.57925 40.9651 6.36638 40.9023 6.16831C40.8394 5.97023 40.7156 5.79707 40.5485 5.67349L40.5484 5.67348L34.0841 0.893464C33.9142 0.767813 33.7085 0.7 33.4972 0.7C33.2859 0.7 33.0802 0.767814 32.9103 0.893464L32.9102 0.893536L26.4532 5.67357Z" fill="#519E47" stroke="#519E47" stroke-width="0.6"/>
<path d="M54.7115 18.6143L54.7112 18.6141L47.0177 12.9191L47.0177 12.9191C46.8073 12.7633 46.6674 12.5302 46.6288 12.2713C46.5902 12.0123 46.656 11.7486 46.8118 11.5382C46.9676 11.3278 47.2006 11.1879 47.4596 11.1493C47.7185 11.1107 47.9822 11.1765 48.1926 11.3323L54.7115 18.6143ZM54.7115 18.6143C54.8813 18.7397 55.0868 18.8074 55.2978 18.8076M54.7115 18.6143L48.1926 11.3323L55.886 17.0272C55.886 17.0272 55.8861 17.0273 55.8861 17.0273C56.0531 17.1509 56.1769 17.324 56.2398 17.522C56.3027 17.7201 56.3014 17.933 56.2363 18.1303C56.1711 18.3276 56.0452 18.4993 55.8767 18.621C55.7082 18.7426 55.5056 18.8079 55.2978 18.8076M55.2978 18.8076L55.2982 18.5076L55.298 18.8076C55.2979 18.8076 55.2979 18.8076 55.2978 18.8076Z" fill="#519E47" stroke="#519E47" stroke-width="0.6"/>
<path d="M19.984 12.9191L19.984 12.9191C20.1944 12.7633 20.3343 12.5302 20.3729 12.2713C20.4115 12.0123 20.3457 11.7486 20.1899 11.5382C20.0341 11.3278 19.8011 11.1879 19.5421 11.1493C19.2832 11.1107 19.0195 11.1765 18.8091 11.3323L11.1157 17.0272C10.9486 17.1508 10.8248 17.324 10.7619 17.522L11.0478 17.6128C11.0041 17.7507 11.0049 17.8988 11.0503 18.0362C11.0957 18.1735 11.1832 18.293 11.3005 18.3777C11.4178 18.4623 11.5588 18.5078 11.7035 18.5076L11.7037 18.8076C11.7038 18.8076 11.7038 18.8076 11.7039 18.8076C11.9149 18.8074 12.1204 18.7397 12.2902 18.6143L12.2905 18.6141L19.984 12.9191Z" fill="#519E47" stroke="#519E47" stroke-width="0.6"/>
<path d="M18.6961 24.5816C18.8812 24.7667 19.1322 24.8707 19.394 24.8707C19.6557 24.8707 19.9067 24.7667 20.0918 24.5816C20.2769 24.3966 20.3809 24.1455 20.3809 23.8838V7.45411H46.6165V23.7528C46.6165 24.0146 46.7205 24.2656 46.9056 24.4507C47.0907 24.6358 47.3417 24.7397 47.6034 24.7397C47.8652 24.7397 48.1162 24.6358 48.3013 24.4507C48.4864 24.2656 48.5903 24.0146 48.5903 23.7528V6.46719C48.5903 6.20544 48.4864 5.95442 48.3013 5.76933C48.1162 5.58425 47.8652 5.48027 47.6034 5.48027H19.394C19.1322 5.48027 18.8812 5.58425 18.6961 5.76933C18.511 5.95442 18.407 6.20545 18.407 6.46719V23.8838C18.407 24.1455 18.511 24.3966 18.6961 24.5816Z" fill="#519E47" stroke="#519E47" stroke-width="0.6"/>
<path d="M33.5019 25.4337H33.5022C35.6339 25.4315 37.6775 24.5837 39.1848 23.0764C40.6921 21.5691 41.5399 19.5255 41.5421 17.3938V17.3935C41.5421 15.8033 41.0706 14.2488 40.1871 12.9266C39.3036 11.6044 38.0479 10.5739 36.5788 9.96535C35.1096 9.3568 33.493 9.19758 31.9334 9.50781C30.3737 9.81805 28.9411 10.5838 27.8166 11.7082C26.6922 12.8327 25.9264 14.2653 25.6162 15.825C25.306 17.3846 25.4652 19.0012 26.0737 20.4704C26.6823 21.9395 27.7128 23.1952 29.035 24.0787C30.3572 24.9622 31.9117 25.4337 33.5019 25.4337ZM30.1316 12.3514C31.1292 11.6848 32.302 11.329 33.5018 11.329C35.1101 11.3309 36.6521 11.9707 37.7894 13.1079C38.9267 14.2453 39.5664 15.7873 39.5683 17.3957C39.5682 18.5954 39.2124 19.7681 38.5459 20.7657C37.8793 21.7633 36.9319 22.5408 35.8234 23C34.7149 23.4591 33.4952 23.5792 32.3184 23.3452C31.1417 23.1111 30.0608 22.5333 29.2124 21.6849C28.364 20.8365 27.7862 19.7556 27.5521 18.5789C27.3181 17.4021 27.4382 16.1823 27.8973 15.0739C28.3565 13.9654 29.134 13.0179 30.1316 12.3514Z" fill="#519E47" stroke="#519E47" stroke-width="0.6"/>
<path d="M32.2097 20.5613C32.0799 20.5616 31.9514 20.5362 31.8315 20.4864C31.7117 20.4367 31.6029 20.3636 31.5115 20.2715C31.5113 20.2713 31.5111 20.271 31.5109 20.2708L29.7295 18.4903C29.6362 18.3996 29.5617 18.2914 29.5104 18.1718C29.4587 18.0513 29.4316 17.9218 29.4305 17.7908C29.4294 17.6597 29.4545 17.5298 29.5041 17.4085C29.5538 17.2873 29.6272 17.1771 29.7199 17.0845C29.8126 16.9919 29.9228 16.9186 30.0441 16.8691C30.1654 16.8195 30.2954 16.7946 30.4264 16.7958C30.5575 16.797 30.687 16.8243 30.8073 16.8761C30.9268 16.9274 31.0349 17.0019 31.1255 17.0952L32.2094 18.1784L35.8717 14.5161C35.9623 14.4228 36.0704 14.3483 36.1899 14.2969C36.3103 14.2451 36.4398 14.2178 36.5709 14.2166C36.7019 14.2154 36.8319 14.2404 36.9532 14.2899C37.0745 14.3395 37.1847 14.4127 37.2774 14.5053C37.3701 14.598 37.4435 14.7081 37.4931 14.8294C37.5428 14.9506 37.5679 15.0806 37.5668 15.2116C37.5657 15.3427 37.5385 15.4722 37.4869 15.5926C37.4356 15.7122 37.3611 15.8205 37.2678 15.9112L32.9079 20.2711C32.9078 20.2712 32.9076 20.2714 32.9075 20.2715C32.816 20.3636 32.7073 20.4366 32.5875 20.4863C32.4677 20.536 32.3393 20.5615 32.2097 20.5613ZM32.2097 20.5613C32.2094 20.5613 32.2091 20.5613 32.2088 20.5613L32.2095 20.2613L32.2106 20.5613C32.2103 20.5613 32.21 20.5613 32.2097 20.5613Z" fill="#519E47" stroke="#519E47" stroke-width="0.6"/>
</svg>
