<svg width="56" height="51" viewBox="0 0 56 51" fill="none" xmlns="http://www.w3.org/2000/svg">
<circle cx="22.7961" cy="27.7961" r="22.7961" fill="#E0F5E3"/>
<path fill-rule="evenodd" clip-rule="evenodd" d="M39 19.125C39 21.3793 38.1045 23.5413 36.5104 25.1354C34.9163 26.7295 32.7543 27.625 30.5 27.625C28.2457 27.625 26.0837 26.7295 24.4896 25.1354C22.8955 23.5413 22 21.3793 22 19.125C22 16.8707 22.8955 14.7087 24.4896 13.1146C26.0837 11.5205 28.2457 10.625 30.5 10.625C32.7543 10.625 34.9163 11.5205 36.5104 13.1146C38.1045 14.7087 39 16.8707 39 19.125ZM34.75 19.125C34.75 20.2522 34.3022 21.3332 33.5052 22.1302C32.7082 22.9272 31.6272 23.375 30.5 23.375C29.3728 23.375 28.2918 22.9272 27.4948 22.1302C26.6978 21.3332 26.25 20.2522 26.25 19.125C26.25 17.9978 26.6978 16.9168 27.4948 16.1198C28.2918 15.3228 29.3728 14.875 30.5 14.875C31.6272 14.875 32.7082 15.3228 33.5052 16.1198C34.3022 16.9168 34.75 17.9978 34.75 19.125Z" fill="#13B859"/>
<path fill-rule="evenodd" clip-rule="evenodd" d="M30.5 2.125C17.5906 2.125 7.125 12.5906 7.125 25.5C7.125 38.4094 17.5906 48.875 30.5 48.875C43.4094 48.875 53.875 38.4094 53.875 25.5C53.875 12.5906 43.4094 2.125 30.5 2.125ZM11.375 25.5C11.375 29.9412 12.8901 34.0297 15.4295 37.2767C17.2129 34.9348 19.5135 33.0368 22.1518 31.7312C24.7901 30.4255 27.6945 29.7474 30.6381 29.75C33.5437 29.7472 36.4116 30.4077 39.0232 31.6812C41.6349 32.9546 43.9214 34.8073 45.7086 37.0983C47.5498 34.6834 48.7895 31.8648 49.3251 28.8758C49.8608 25.8867 49.6769 22.813 48.7888 19.9091C47.9007 17.0052 46.3338 14.3545 44.2179 12.1763C42.102 9.99818 39.4978 8.3552 36.6208 7.38333C33.7438 6.41146 30.6768 6.13864 27.6735 6.58744C24.6701 7.03625 21.8168 8.19377 19.3496 9.96424C16.8825 11.7347 14.8723 14.0672 13.4856 16.7688C12.0989 19.4704 11.3754 22.4633 11.375 25.5ZM30.5 44.625C26.1096 44.6316 21.8518 43.1212 18.447 40.3495C19.8175 38.3876 21.6416 36.7857 23.7642 35.6802C25.8867 34.5747 28.2449 33.9983 30.6381 34C33.0015 33.9981 35.3312 34.5601 37.4337 35.6393C39.5363 36.7185 41.351 38.2837 42.7272 40.205C39.296 43.0667 34.968 44.6313 30.5 44.625Z" fill="#13B859"/>
</svg>
