<svg width="85" height="36" viewBox="0 0 85 36" fill="none" xmlns="http://www.w3.org/2000/svg">
<path d="M24.8984 25.8906C24.4609 27.0156 23.9609 28.1094 23.3984 29.1719C22.8359 30.2344 22.2109 31.1875 21.5234 32.0312C20.8359 32.875 20.1016 33.5469 19.3203 34.0469C18.5391 34.5469 17.6953 34.7969 16.7891 34.7969C15.3203 34.7969 14.2109 34.3125 13.4609 33.3438C12.7109 32.3438 12.1953 31.125 11.9141 29.6875C11.4766 30.3438 11.0078 31 10.5078 31.6562C10.0078 32.3125 9.47656 32.8906 8.91406 33.3906C8.35156 33.8906 7.77344 34.2969 7.17969 34.6094C6.58594 34.9219 5.99219 35.0781 5.39844 35.0781C4.58594 35.0781 3.89844 34.9062 3.33594 34.5625C2.77344 34.2188 2.30469 33.75 1.92969 33.1562C1.58594 32.5312 1.33594 31.8281 1.17969 31.0469C1.02344 30.2344 0.945312 29.375 0.945312 28.4688V27.9062C0.945312 26.75 1.03906 25.5625 1.22656 24.3438C1.41406 23.125 1.61719 22 1.83594 20.9688C2.08594 19.9375 2.33594 19.0469 2.58594 18.2969C2.83594 17.5156 3.02344 17 3.14844 16.75C3.36719 16.4375 3.83594 16.1406 4.55469 15.8594C5.30469 15.5469 6.03906 15.4219 6.75781 15.4844C7.10156 15.5156 7.27344 15.6562 7.27344 15.9062C7.30469 16.1562 7.27344 16.4688 7.17969 16.8438C7.05469 17.375 6.83594 18.1719 6.52344 19.2344C6.21094 20.2969 5.88281 21.4531 5.53906 22.7031C5.22656 23.9531 4.94531 25.1875 4.69531 26.4062C4.44531 27.625 4.32031 28.6406 4.32031 29.4531C4.32031 30.4531 4.47656 31.1719 4.78906 31.6094C5.10156 32.0469 5.58594 32.2656 6.24219 32.2656C7.02344 32.2656 7.88281 31.8281 8.82031 30.9531C9.78906 30.0781 10.7266 28.5938 11.6328 26.5C11.6016 26.3125 11.5859 26.125 11.5859 25.9375C11.5859 25.75 11.5859 25.5469 11.5859 25.3281C11.5859 23.9219 11.6328 22.5781 11.7266 21.2969C11.8516 20.0156 12.0703 18.8906 12.3828 17.9219C12.7266 16.9531 13.1797 16.1875 13.7422 15.625C14.3359 15.0625 15.1016 14.7812 16.0391 14.7812C16.4141 14.7812 16.7266 14.8906 16.9766 15.1094C17.2266 15.3281 17.3516 15.6406 17.3516 16.0469C17.3516 17.0469 16.9922 18.4688 16.2734 20.3125C15.5859 22.125 14.7578 24.125 13.7891 26.3125C13.6953 26.4375 13.6328 26.5625 13.6016 26.6875C13.6953 27.2812 13.8047 27.9062 13.9297 28.5625C14.0859 29.2188 14.2891 29.8281 14.5391 30.3906C14.7891 30.9219 15.0859 31.375 15.4297 31.75C15.7734 32.0938 16.1797 32.2656 16.6484 32.2656C17.3359 32.2656 17.9609 31.9375 18.5234 31.2812C19.1172 30.625 19.6328 29.8281 20.0703 28.8906C20.5391 27.9531 20.9453 26.9688 21.2891 25.9375C21.6328 24.875 21.8984 23.9375 22.0859 23.125C21.9922 22.7812 21.9141 22.4531 21.8516 22.1406C21.7891 21.7969 21.7578 21.4062 21.7578 20.9688C21.7578 20 21.8984 19.1719 22.1797 18.4844C22.4609 17.7969 22.8203 17.2344 23.2578 16.7969C23.7266 16.3281 24.2109 15.9844 24.7109 15.7656C25.2422 15.5469 25.7266 15.4375 26.1641 15.4375C26.9453 15.4375 27.3359 15.7812 27.3359 16.4688C27.3359 16.9688 27.2109 17.8438 26.9609 19.0938C26.7109 20.3125 26.3516 21.7031 25.8828 23.2656C26.4453 23.5156 27.1641 23.6406 28.0391 23.6406C28.8516 23.6406 29.6016 23.5469 30.2891 23.3594C30.9766 23.1406 31.6016 22.875 32.1641 22.5625C32.7266 22.25 33.2422 21.9062 33.7109 21.5312C34.1797 21.1562 34.6328 20.7969 35.0703 20.4531C35.4141 20.2031 35.6953 20.1875 35.9141 20.4062C36.1328 20.625 36.1016 20.9688 35.8203 21.4375C35.5703 21.8438 35.1328 22.3125 34.5078 22.8438C33.9141 23.375 33.1797 23.8906 32.3047 24.3906C31.4609 24.8594 30.5078 25.2656 29.4453 25.6094C28.4141 25.9219 27.3203 26.0781 26.1641 26.0781C25.9766 26.0781 25.7734 26.0625 25.5547 26.0312C25.3359 26 25.1172 25.9531 24.8984 25.8906ZM41.8203 6.39062C41.7266 6.73438 41.5391 7.07812 41.2578 7.42188C41.0078 7.73438 40.7109 8 40.3672 8.21875C40.0547 8.40625 39.7266 8.53125 39.3828 8.59375C39.0391 8.65625 38.7578 8.59375 38.5391 8.40625C37.8828 7.90625 37.5391 7.375 37.5078 6.8125C37.4766 6.21875 37.6172 5.67188 37.9297 5.17188C38.2422 4.64062 38.6328 4.20313 39.1016 3.85938C39.5703 3.48438 39.9766 3.26563 40.3203 3.20312C40.6641 3.14062 40.9453 3.21875 41.1641 3.4375C41.4141 3.625 41.6016 3.89062 41.7266 4.23438C41.8516 4.54687 41.9141 4.90625 41.9141 5.3125C41.9453 5.71875 41.9141 6.07812 41.8203 6.39062ZM35.3516 16.375C35.5078 16.1875 35.8047 16.0312 36.2422 15.9062C36.6797 15.7812 37.1328 15.6875 37.6016 15.625C38.0703 15.5312 38.4922 15.4844 38.8672 15.4844C39.2734 15.4531 39.5078 15.4531 39.5703 15.4844C39.6016 15.5156 39.5234 15.8438 39.3359 16.4688C39.1484 17.0938 38.9141 17.8281 38.6328 18.6719C38.3516 19.5156 38.0547 20.3906 37.7422 21.2969C37.4297 22.1719 37.1953 22.8906 37.0391 23.4531C36.8828 24.0156 36.6953 24.6562 36.4766 25.375C36.2578 26.0625 36.0547 26.75 35.8672 27.4375C35.7109 28.0938 35.6016 28.7188 35.5391 29.3125C35.4766 29.9062 35.5234 30.3594 35.6797 30.6719C35.8359 31.0469 36.0078 31.3125 36.1953 31.4688C36.3828 31.5938 36.5859 31.6562 36.8047 31.6562C37.4297 31.6562 38.2109 31.3125 39.1484 30.625C40.1172 29.9375 41.0859 29.125 42.0547 28.1875C43.0547 27.2188 43.9766 26.25 44.8203 25.2812C45.6641 24.2812 46.2891 23.4844 46.6953 22.8906C46.9453 22.5781 47.1953 22.375 47.4453 22.2812C47.7266 22.1875 47.9453 22.2031 48.1016 22.3281C48.2891 22.4531 48.3828 22.6562 48.3828 22.9375C48.4141 23.2188 48.3203 23.5469 48.1016 23.9219C47.6016 24.7969 46.8672 25.8438 45.8984 27.0625C44.9297 28.25 43.8984 29.4062 42.8047 30.5312C41.7109 31.625 40.6328 32.5625 39.5703 33.3438C38.5391 34.125 37.6953 34.5312 37.0391 34.5625C36.5078 34.5938 35.9766 34.5 35.4453 34.2812C34.9453 34.0938 34.4766 33.8281 34.0391 33.4844C33.6328 33.1094 33.2891 32.6875 33.0078 32.2188C32.7266 31.7188 32.5703 31.2031 32.5391 30.6719C32.4453 29.8906 32.4453 28.8281 32.5391 27.4844C32.6328 26.1094 32.8047 24.7188 33.0547 23.3125C33.3047 21.875 33.6172 20.5156 33.9922 19.2344C34.3984 17.9531 34.8516 17 35.3516 16.375ZM61.9766 22.1406C62.1016 21.9531 62.2578 21.8438 62.4453 21.8125C62.6641 21.75 62.8359 21.7656 62.9609 21.8594C63.0859 21.9531 63.1484 22.1094 63.1484 22.3281C63.1797 22.5469 63.1016 22.8438 62.9141 23.2188C62.2891 24.4062 61.4609 25.6875 60.4297 27.0625C59.4297 28.4375 58.3672 29.7344 57.2422 30.9531C56.1172 32.1406 55.0234 33.125 53.9609 33.9062C52.8984 34.6875 52.0078 35.0781 51.2891 35.0781C50.2578 35.0781 49.3984 34.875 48.7109 34.4688C48.0234 34.0625 47.4766 33.5625 47.0703 32.9688C46.6953 32.375 46.4297 31.7344 46.2734 31.0469C46.1172 30.3281 46.0703 29.6719 46.1328 29.0781C46.1641 28.5781 46.2734 27.6875 46.4609 26.4062C46.6484 25.0938 46.8984 23.5938 47.2109 21.9062C47.5234 20.1875 47.8672 18.3594 48.2422 16.4219C48.6484 14.4531 49.0703 12.5625 49.5078 10.75C48.9766 10.8125 48.4453 10.875 47.9141 10.9375C47.3828 11 46.8984 11.0312 46.4609 11.0312C45.4609 11.0312 44.5234 10.9219 43.6484 10.7031C42.7422 10.4531 42.0703 10.2188 41.6328 10C41.3828 9.875 41.2734 9.70312 41.3047 9.48438C41.3359 9.23438 41.4297 9 41.5859 8.78125C41.7422 8.53125 41.9453 8.32812 42.1953 8.17188C42.4141 7.98438 42.6172 7.89062 42.8047 7.89062C43.3984 7.95312 44.0391 8.01562 44.7266 8.07812C45.4141 8.10938 46.1641 8.10938 46.9766 8.07812C47.5703 8.04688 48.1328 8 48.6641 7.9375C49.2266 7.875 49.7734 7.79688 50.3047 7.70312C50.7109 6.20312 51.1016 4.90625 51.4766 3.8125C51.8828 2.6875 52.2422 1.90625 52.5547 1.46875C52.6484 1.3125 52.8516 1.1875 53.1641 1.09375C53.5078 0.96875 53.8672 0.890625 54.2422 0.859375C54.6172 0.796875 54.9766 0.796875 55.3203 0.859375C55.6641 0.890625 55.9141 1 56.0703 1.1875C56.2266 1.4375 56.2891 2.07812 56.2578 3.10938C56.2266 4.14062 56.0547 5.45312 55.7422 7.04688C57.0547 7.04688 58.2109 7.125 59.2109 7.28125C60.2422 7.40625 61.1172 7.5625 61.8359 7.75C62.5547 7.90625 63.1328 8.07812 63.5703 8.26562C64.0078 8.42188 64.3359 8.53125 64.5547 8.59375C64.7734 8.65625 64.8828 8.8125 64.8828 9.0625C64.9141 9.3125 64.8672 9.57812 64.7422 9.85938C64.6484 10.1094 64.4766 10.3281 64.2266 10.5156C63.9766 10.7031 63.6953 10.7656 63.3828 10.7031C63.0703 10.6719 62.7109 10.6094 62.3047 10.5156C61.9297 10.4219 61.4609 10.3438 60.8984 10.2812C60.3672 10.2188 59.7266 10.1562 58.9766 10.0938C58.2266 10.0312 57.3516 10 56.3516 10C56.1641 10 55.9453 10.0156 55.6953 10.0469C55.4766 10.0469 55.2422 10.0469 54.9922 10.0469C54.8672 10.5469 54.7422 11.0469 54.6172 11.5469C54.5234 12.0156 54.3828 12.5156 54.1953 13.0469C53.7891 14.2969 53.3203 15.6562 52.7891 17.125C52.3203 18.4062 51.7578 19.875 51.1016 21.5312C50.4453 23.1875 49.7109 24.9531 48.8984 26.8281C48.7109 28.1719 48.7266 29.2031 48.9453 29.9219C49.1953 30.6094 49.4922 31.1094 49.8359 31.4219C50.2422 31.7656 50.7422 31.9531 51.3359 31.9844C51.8047 32.0469 52.3672 31.8906 53.0234 31.5156C53.7109 31.1094 54.4141 30.5781 55.1328 29.9219C55.8516 29.2656 56.5703 28.5469 57.2891 27.7656C58.0391 26.9844 58.7266 26.2188 59.3516 25.4688C59.9766 24.7188 60.5234 24.0469 60.9922 23.4531C61.4609 22.8281 61.7891 22.3906 61.9766 22.1406ZM83.3516 23.6875C83.5703 23.4375 83.7891 23.3125 84.0078 23.3125C84.2578 23.2812 84.4453 23.3438 84.5703 23.5C84.7266 23.625 84.7891 23.8281 84.7578 24.1094C84.7578 24.3906 84.6328 24.7031 84.3828 25.0469C83.7891 25.8594 83.1016 26.7031 82.3203 27.5781C81.5391 28.4219 80.6953 29.25 79.7891 30.0625C78.9141 30.875 78.0234 31.6406 77.1172 32.3594C76.2109 33.0781 75.3359 33.6719 74.4922 34.1406C73.5547 34.6719 72.7578 34.9375 72.1016 34.9375C71.4766 34.9375 70.8516 34.5312 70.2266 33.7188C69.6641 33 69.3828 32.2344 69.3828 31.4219C69.4141 30.5781 69.6016 29.5312 69.9453 28.2812C70.1641 27.5 70.4609 26.5781 70.8359 25.5156C71.2422 24.4219 71.5547 23.375 71.7734 22.375C72.0234 21.375 72.1016 20.5312 72.0078 19.8438C71.9141 19.125 71.5078 18.7656 70.7891 18.7656C70.2891 18.7656 69.7422 18.9375 69.1484 19.2812C68.5859 19.625 68.0078 20.0781 67.4141 20.6406C66.8516 21.1719 66.3047 21.7812 65.7734 22.4688C65.2422 23.1562 64.7734 23.8281 64.3672 24.4844C64.1172 25.7031 63.8672 26.9062 63.6172 28.0938C63.3984 29.0938 63.1641 30.1875 62.9141 31.375C62.6953 32.5312 62.4766 33.5625 62.2578 34.4688C62.0703 34.625 61.8672 34.7344 61.6484 34.7969C61.4297 34.8594 61.2266 34.8906 61.0391 34.8906C60.8203 34.8906 60.6016 34.875 60.3828 34.8438C60.1328 34.7812 59.8984 34.6875 59.6797 34.5625C59.4922 34.4375 59.3047 34.2656 59.1172 34.0469C58.9297 33.8594 58.7891 33.5938 58.6953 33.25C60.1016 27.4688 61.2109 22.8281 62.0234 19.3281C62.8359 15.8281 63.4609 13.1562 63.8984 11.3125C64.3984 9.125 64.7422 7.60938 64.9297 6.76562C65.0234 6.17188 65.1016 5.59375 65.1641 5.03125C65.2266 4.53125 65.2578 4.01563 65.2578 3.48438C65.2578 2.95312 65.2109 2.46875 65.1172 2.03125C65.3672 1.875 65.6328 1.75 65.9141 1.65625C66.2266 1.5625 66.5234 1.48438 66.8047 1.42188C67.1484 1.32812 67.4922 1.25 67.8359 1.1875C68.1797 1.125 68.4922 1.09375 68.7734 1.09375C69.0234 1.09375 69.2578 1.125 69.4766 1.1875C69.6953 1.21875 69.8359 1.3125 69.8984 1.46875C70.0859 1.625 70.1641 1.9375 70.1328 2.40625C70.1328 2.875 70.1016 3.35938 70.0391 3.85938C69.9141 4.45312 69.7734 5.09375 69.6172 5.78125C68.9609 8.3125 68.2266 10.7812 67.4141 13.1875C66.6016 15.5625 65.8516 18.1094 65.1641 20.8281C65.5703 20.2031 66.0547 19.5625 66.6172 18.9062C67.1797 18.25 67.7891 17.6562 68.4453 17.125C69.1328 16.5625 69.8516 16.1094 70.6016 15.7656C71.3516 15.3906 72.1484 15.2031 72.9922 15.2031C73.4297 15.2031 73.8359 15.2812 74.2109 15.4375C74.6172 15.5625 74.9609 15.7969 75.2422 16.1406C75.5547 16.4531 75.7891 16.8906 75.9453 17.4531C76.1016 17.9844 76.1641 18.6562 76.1328 19.4688C76.1328 19.9688 76.0703 20.4844 75.9453 21.0156C75.8516 21.5469 75.7109 22.1406 75.5234 22.7969C75.3359 23.4219 75.0859 24.125 74.7734 24.9062C74.4922 25.6875 74.1484 26.5938 73.7422 27.625C73.4609 28.3438 73.2422 28.9531 73.0859 29.4531C72.9297 29.9531 72.9609 30.3906 73.1797 30.7656C73.4609 31.2656 74.0078 31.3906 74.8203 31.1406C75.6641 30.8594 76.9141 30.0469 78.5703 28.7031C78.9453 28.3906 79.3672 28 79.8359 27.5312C80.3047 27.0625 80.7578 26.5938 81.1953 26.125C81.6328 25.625 82.0391 25.1562 82.4141 24.7188C82.7891 24.2812 83.1016 23.9375 83.3516 23.6875Z" fill="#13B859"/>
</svg>
